<svg width="32" height="32" viewBox="0 0 32 32" fill="none" xmlns="http://www.w3.org/2000/svg">
<path d="M26.2788 24.975C26.3355 24.9073 26.3874 24.8372 26.4375 24.766C26.4453 24.755 26.4539 24.7445 26.4614 24.7333C26.5064 24.6673 26.547 24.5996 26.5863 24.5311C26.5966 24.5133 26.6079 24.4959 26.6176 24.4778C26.6533 24.4128 26.6851 24.3466 26.7157 24.2796C26.7262 24.2566 26.7374 24.2341 26.7474 24.2111C26.7751 24.1471 26.799 24.0821 26.822 24.0166C26.8315 23.9892 26.8418 23.9621 26.8506 23.9344C26.8706 23.8716 26.888 23.8083 26.9041 23.7445C26.9122 23.713 26.92 23.6817 26.9271 23.6501C26.9405 23.589 26.9515 23.5277 26.9613 23.4658C26.9669 23.4306 26.9721 23.3957 26.9765 23.3602C26.9838 23.3011 26.9892 23.2419 26.9931 23.1825C26.9955 23.1439 26.9975 23.1055 26.9985 23.0669C27.0002 23.0099 27.0004 22.9532 26.9992 22.8963C26.9982 22.855 26.996 22.8137 26.9933 22.7723C26.9899 22.7181 26.9858 22.6638 26.9794 22.6098C26.9743 22.5658 26.9674 22.522 26.9606 22.478C26.9525 22.4267 26.9442 22.3756 26.9335 22.3248C26.9237 22.2786 26.9117 22.2328 26.9 22.1869C26.8875 22.1387 26.8755 22.0908 26.8609 22.0434C26.8459 21.9955 26.8283 21.9483 26.8112 21.9009C26.7951 21.8564 26.7797 21.8117 26.7614 21.7677C26.7408 21.7183 26.7171 21.6704 26.6939 21.622C26.6743 21.5812 26.6563 21.5401 26.6347 21.5002C26.6076 21.4492 26.5766 21.4 26.5465 21.3502C26.5247 21.3145 26.5047 21.2778 26.4812 21.2428C26.4446 21.1878 26.4037 21.135 26.3632 21.082C26.3419 21.0541 26.3228 21.0253 26.3006 20.9981C26.2358 20.9189 26.1666 20.8419 26.0928 20.7681L24.0984 18.7737C24.0245 18.6999 23.9476 18.6309 23.8684 18.5659C23.8412 18.5437 23.8126 18.5248 23.7847 18.5036C23.7315 18.463 23.6787 18.4219 23.6234 18.3853C23.5885 18.362 23.5523 18.3422 23.5166 18.3205C23.4667 18.2902 23.4173 18.2591 23.3663 18.232C23.3264 18.2107 23.2853 18.1924 23.2448 18.1731C23.1964 18.1499 23.148 18.1262 23.0986 18.1056C23.0546 18.0873 23.0096 18.0719 22.9649 18.0555C22.9177 18.0384 22.871 18.021 22.8231 18.0061C22.7752 17.9912 22.7268 17.979 22.6784 17.9665C22.6329 17.9548 22.5875 17.9431 22.5417 17.9333C22.4904 17.9225 22.4391 17.914 22.3875 17.9059C22.344 17.8991 22.3005 17.8922 22.2567 17.8871C22.2024 17.8807 22.1482 17.8766 22.0937 17.8732C22.0524 17.8705 22.0113 17.8683 21.97 17.8673C21.9128 17.8658 21.8558 17.8663 21.7989 17.868C21.7605 17.8692 21.7224 17.871 21.6842 17.8734C21.6246 17.8773 21.5649 17.8829 21.5055 17.8903C21.4706 17.8947 21.4359 17.8998 21.4009 17.9052C21.3388 17.915 21.2772 17.9262 21.2156 17.9396C21.1843 17.9465 21.1533 17.9546 21.1222 17.9624C21.0582 17.9785 20.9946 17.9959 20.9313 18.0162C20.9042 18.025 20.8773 18.035 20.8504 18.0443C20.7847 18.0675 20.7194 18.0917 20.6549 18.1193C20.6321 18.1291 20.6099 18.1401 20.5874 18.1506C20.5202 18.1814 20.4534 18.2134 20.3882 18.2491C20.3706 18.2589 20.3535 18.2696 20.3361 18.2799C20.2672 18.3195 20.1992 18.3603 20.133 18.4056C20.1222 18.4129 20.1119 18.4214 20.1012 18.4288C20.0296 18.4789 19.9592 18.531 19.8912 18.5879C19.8208 18.6468 19.7514 18.7077 19.6854 18.7737L18.336 20.123C18.1632 20.2959 17.8828 20.2959 17.71 20.123L11.8773 14.2906C11.7045 14.1177 11.7045 13.8373 11.8773 13.6645L13.2266 12.3152C13.2926 12.2492 13.3537 12.1798 13.4127 12.1094C13.4694 12.0416 13.5212 11.9715 13.5713 11.9004C13.5791 11.8894 13.5877 11.8788 13.5953 11.8676C13.6402 11.8016 13.6808 11.7339 13.7202 11.6654C13.7304 11.6476 13.7417 11.6302 13.7515 11.6122C13.7872 11.5471 13.8189 11.4809 13.8495 11.4139C13.86 11.3909 13.8712 11.3684 13.8813 11.3455C13.9089 11.2814 13.9328 11.2164 13.9558 11.1509C13.9654 11.1235 13.9756 11.0964 13.9844 11.0688C14.0045 11.0059 14.0218 10.9426 14.038 10.8788C14.046 10.8473 14.0538 10.816 14.0609 10.7845C14.0744 10.7233 14.0854 10.662 14.0952 10.6001C14.1008 10.5649 14.1059 10.53 14.1103 10.4945C14.1176 10.4354 14.123 10.3762 14.1269 10.3168C14.1294 10.2782 14.1313 10.2398 14.1323 10.2012C14.134 10.1443 14.1343 10.0875 14.133 10.0306C14.1321 9.98928 14.1299 9.94797 14.1272 9.90665C14.1238 9.85239 14.1196 9.79812 14.1132 9.7441C14.1081 9.7001 14.1013 9.65634 14.0944 9.61234C14.0864 9.56101 14.078 9.50992 14.0673 9.45907C14.0575 9.41287 14.0455 9.36716 14.0338 9.32121C14.0213 9.27305 14.0094 9.22514 13.9947 9.17772C13.9798 9.12981 13.9622 9.08263 13.9451 9.0352C13.9289 8.99072 13.9135 8.94598 13.8952 8.90198C13.8747 8.8526 13.851 8.80469 13.8277 8.75629C13.8082 8.71547 13.7901 8.6744 13.7686 8.63456C13.7414 8.58347 13.7104 8.53433 13.6803 8.48447C13.6586 8.44878 13.6385 8.41211 13.6151 8.37716C13.5784 8.32216 13.5376 8.26936 13.497 8.21631C13.4757 8.18844 13.4567 8.1596 13.4344 8.13247C13.3696 8.05327 13.3005 7.97626 13.2266 7.90244L11.2322 5.90801C11.1584 5.83418 11.0814 5.76525 11.0022 5.70023C10.975 5.67798 10.9464 5.65916 10.9186 5.63789C10.8653 5.59732 10.8125 5.55625 10.7572 5.51958C10.7223 5.49636 10.6861 5.47656 10.6504 5.4548C10.6006 5.42449 10.5512 5.39345 10.5001 5.36631C10.4602 5.34505 10.4192 5.32671 10.3786 5.3074C10.3302 5.28418 10.2818 5.26047 10.2324 5.23994C10.1884 5.2216 10.1434 5.2062 10.0987 5.18982C10.0515 5.17271 10.0048 5.15536 9.95693 5.14045C9.90902 5.12554 9.86062 5.11331 9.81222 5.10085C9.76675 5.08911 9.72128 5.07738 9.67557 5.0676C9.62424 5.05685 9.5729 5.04829 9.52132 5.04022C9.47781 5.03338 9.4343 5.02653 9.39055 5.0214C9.33628 5.01505 9.28201 5.01089 9.2275 5.00747C9.18619 5.00478 9.14512 5.00258 9.10381 5.0016C9.04661 5.00013 8.98965 5.00062 8.9327 5.00233C8.89432 5.00356 8.85619 5.00527 8.81805 5.00771C8.75841 5.01162 8.69876 5.01725 8.63936 5.02458C8.60441 5.02898 8.5697 5.03411 8.53474 5.03949C8.47265 5.04927 8.41105 5.06051 8.34945 5.07396C8.31816 5.0808 8.28712 5.08887 8.25607 5.09669C8.19252 5.11282 8.12896 5.13018 8.06565 5.15047C8.03851 5.15927 8.01163 5.16929 7.98474 5.17858C7.91898 5.2018 7.85371 5.226 7.78918 5.25362C7.76645 5.2634 7.7442 5.2744 7.72171 5.28491C7.65449 5.31571 7.58776 5.34774 7.52249 5.38343C7.50489 5.3932 7.48778 5.40396 7.47042 5.41423C7.40173 5.45358 7.33353 5.4944 7.26729 5.53963C7.25653 5.54696 7.24627 5.55527 7.23551 5.56285C7.16389 5.61296 7.09349 5.66527 7.02553 5.72198C6.95513 5.78089 6.88571 5.84176 6.81971 5.90776C4.05429 8.53922 3.80715 14.6338 10.6125 21.3883C17.3671 28.1937 23.4616 27.9465 26.0928 25.1811C26.1591 25.1149 26.2199 25.0457 26.2788 24.975C26.2788 24.9753 26.2788 24.9753 26.2788 24.975Z" fill="white"/>
<path d="M9.03411 5.06111C9.05709 5.06111 9.08007 5.06136 9.10305 5.06184C9.14362 5.06282 9.18396 5.06502 9.22429 5.06771C9.27783 5.07113 9.33087 5.07529 9.38416 5.0814C9.42694 5.08629 9.46972 5.09313 9.51225 5.09973C9.56285 5.1078 9.61345 5.11611 9.66356 5.12662C9.70512 5.13542 9.74594 5.14593 9.79752 5.15913L9.81096 5.16256C9.85398 5.17356 9.89701 5.18456 9.93954 5.19776C9.98012 5.21022 10.0202 5.22489 10.0603 5.23956L10.0784 5.24616L10.1065 5.25667C10.141 5.26914 10.1754 5.28136 10.2094 5.29554C10.2505 5.31265 10.2903 5.33196 10.3307 5.35127L10.3527 5.36178L10.3879 5.3784C10.416 5.3916 10.4441 5.4048 10.4717 5.41947C10.5137 5.44196 10.5548 5.46714 10.5956 5.49207L10.6191 5.50625L10.657 5.52874C10.6795 5.54194 10.702 5.55514 10.7237 5.5698C10.7733 5.6028 10.821 5.63947 10.8689 5.67589L10.8819 5.68592L10.9168 5.71158C10.9327 5.72307 10.9486 5.73432 10.9638 5.74678C11.0437 5.81229 11.1195 5.88074 11.1891 5.95041L13.1836 7.94484C13.2533 8.01451 13.3217 8.09029 13.3872 8.17022C13.3999 8.18562 13.4114 8.20175 13.4229 8.21764L13.4486 8.25235L13.4596 8.26678C13.4955 8.31396 13.5317 8.36113 13.5642 8.41002C13.5789 8.43227 13.5923 8.455 13.6057 8.47773L13.628 8.51513L13.6427 8.53909C13.6676 8.57967 13.6923 8.62025 13.7148 8.66229C13.7297 8.69016 13.7429 8.71827 13.7561 8.74662L13.7727 8.78158L13.7835 8.80382C13.8025 8.84367 13.8218 8.88351 13.8387 8.92434C13.8526 8.95783 13.8649 8.9918 13.8771 9.02578L13.8876 9.05512L13.8942 9.07345C13.9089 9.11378 13.9235 9.15387 13.9362 9.19469C13.9492 9.23625 13.9599 9.27829 13.9707 9.3201L13.9768 9.34381C13.9878 9.38585 13.9986 9.42814 14.0076 9.47067C14.0181 9.52054 14.0262 9.57065 14.0343 9.62101C14.0411 9.66403 14.0477 9.70705 14.0528 9.75032C14.0589 9.80336 14.0631 9.85641 14.0665 9.9097C14.0692 9.95028 14.0714 9.99061 14.0724 10.0312C14.0739 10.0872 14.0734 10.1427 14.0717 10.1986C14.0704 10.2365 14.0687 10.2742 14.0663 10.3121C14.0624 10.3702 14.057 10.4284 14.0499 10.4863C14.0455 10.5211 14.0404 10.5555 14.035 10.59C14.0255 10.6506 14.0145 10.7107 14.0015 10.7706C13.9951 10.7995 13.9878 10.8281 13.979 10.8633C13.9634 10.9259 13.9463 10.988 13.9265 11.0493C13.9201 11.0686 13.9133 11.0879 13.9064 11.1072L13.8983 11.1297C13.8759 11.1938 13.8521 11.2576 13.8253 11.3204C13.8194 11.3343 13.8128 11.348 13.8062 11.3617L13.794 11.3876C13.7639 11.4531 13.7329 11.5182 13.6979 11.582C13.6925 11.5915 13.6869 11.601 13.681 11.6106L13.6671 11.6343C13.6202 11.7159 13.5825 11.777 13.5446 11.8325L13.5336 11.8477L13.5212 11.8645C13.4645 11.9454 13.4151 12.0105 13.3657 12.0696C13.2975 12.1513 13.2396 12.2156 13.1836 12.2715L11.8342 13.6209C11.638 13.8172 11.638 14.1369 11.8342 14.3332L17.667 20.1657C17.7621 20.2608 17.8887 20.3133 18.0231 20.3133C18.1576 20.3133 18.2842 20.261 18.3793 20.1657L19.7286 18.8163C19.7853 18.7596 19.8474 18.7034 19.9305 18.634C19.9897 18.5844 20.0552 18.535 20.1364 18.478L20.1527 18.466L20.1674 18.4553C20.2234 18.4172 20.2847 18.3793 20.3666 18.3321L20.3894 18.3186C20.3987 18.313 20.4082 18.3074 20.4177 18.302C20.4818 18.2668 20.547 18.2355 20.613 18.2055L20.6385 18.1935C20.6519 18.1871 20.6656 18.1808 20.6793 18.1747C20.7423 18.1475 20.8064 18.1238 20.8709 18.1011L20.8939 18.093C20.9127 18.0864 20.9313 18.0796 20.9504 18.0735C21.0122 18.0537 21.0745 18.0366 21.1445 18.019C21.1726 18.0119 21.2007 18.0048 21.229 17.9984C21.2894 17.9852 21.3498 17.9742 21.4107 17.9647C21.4449 17.9593 21.4789 17.9542 21.5131 17.95C21.5715 17.9429 21.6297 17.9373 21.6883 17.9336C21.7257 17.9312 21.7632 17.9295 21.8008 17.9283C21.8338 17.9273 21.8668 17.9268 21.9 17.9268C21.923 17.9268 21.9458 17.927 21.9687 17.9275C22.0093 17.9285 22.0496 17.9307 22.09 17.9334C22.1435 17.9368 22.1966 17.941 22.2498 17.9471C22.2926 17.952 22.3354 17.9588 22.3779 17.9654C22.4285 17.9735 22.4791 17.9818 22.5292 17.9923C22.5708 18.0011 22.6116 18.0116 22.6632 18.0248L22.6766 18.0282C22.7197 18.0392 22.7627 18.0502 22.8052 18.0634C22.8458 18.0762 22.8859 18.0906 22.9262 18.1052L22.9443 18.1118L22.9724 18.1221C23.0069 18.1346 23.0414 18.1468 23.0753 18.161C23.1164 18.1781 23.1565 18.1974 23.1966 18.2167L23.2186 18.2272L23.2538 18.2438C23.2819 18.257 23.31 18.2702 23.3376 18.2849C23.3797 18.3074 23.4207 18.3326 23.4616 18.3575L23.485 18.3717L23.5229 18.3942C23.5454 18.4074 23.5679 18.4206 23.5896 18.4352C23.6393 18.4682 23.6869 18.5049 23.7349 18.5413L23.7478 18.5514L23.7828 18.577C23.7987 18.5885 23.8145 18.5998 23.8297 18.6125C23.9096 18.678 23.9854 18.7464 24.0551 18.8161L26.0495 20.8105C26.1192 20.8802 26.1876 20.956 26.2531 21.0359C26.2658 21.0513 26.2773 21.0674 26.2888 21.0833L26.3145 21.118L26.3255 21.1325C26.3614 21.1796 26.3976 21.2268 26.4301 21.2757C26.4448 21.298 26.4582 21.3207 26.4717 21.3434L26.4939 21.3808L26.5086 21.4048C26.5335 21.4454 26.5582 21.4862 26.5807 21.528C26.5956 21.5558 26.6088 21.584 26.622 21.6123L26.6386 21.6473L26.6494 21.6698C26.6684 21.7096 26.6878 21.7494 26.7046 21.79C26.7186 21.8235 26.7308 21.8575 26.743 21.8915L26.7535 21.9206L26.7601 21.9386C26.7748 21.979 26.7894 22.0193 26.8022 22.0601C26.8151 22.1017 26.8259 22.1437 26.8366 22.1855L26.8427 22.2092C26.8537 22.2513 26.8645 22.2936 26.8735 22.3361C26.8841 22.386 26.8921 22.4361 26.9002 22.4864C26.907 22.5295 26.9136 22.5725 26.9188 22.6158C26.9249 22.6688 26.929 22.7218 26.9324 22.7751C26.9351 22.8157 26.9373 22.856 26.9383 22.8966C26.9398 22.9526 26.9393 23.0081 26.9376 23.0641C26.9364 23.102 26.9347 23.1396 26.9322 23.1775C26.9283 23.2357 26.9229 23.2939 26.9158 23.3518C26.9114 23.3865 26.9063 23.421 26.9009 23.4554C26.8914 23.5161 26.8804 23.5762 26.8674 23.6361C26.8611 23.6652 26.8537 23.6938 26.8449 23.7287C26.8293 23.7913 26.8122 23.8534 26.7924 23.9147C26.7863 23.9341 26.7792 23.9534 26.7723 23.9724L26.7643 23.9952C26.7418 24.0592 26.7181 24.123 26.6912 24.1858C26.6851 24.1998 26.6787 24.2135 26.6721 24.2271L26.6601 24.2531C26.6301 24.3186 26.599 24.3836 26.5641 24.4474C26.5587 24.4572 26.5531 24.4665 26.5472 24.476L26.5333 24.4995C26.4863 24.5811 26.4487 24.6422 26.4108 24.6977L26.3998 24.7129L26.3873 24.7297C26.3306 24.8106 26.2812 24.8759 26.2319 24.9348C26.1634 25.0165 26.1057 25.0808 26.0485 25.1377C24.9436 26.2988 23.2958 26.9385 21.4087 26.9385C18.0551 26.9385 14.2364 24.9517 10.6553 21.3439C7.01254 17.7285 5.02593 13.8783 5.06162 10.5027C5.08118 8.65398 5.7204 7.0377 6.86294 5.95065C6.91965 5.89394 6.98174 5.83796 7.06486 5.76829C7.12401 5.71867 7.18952 5.66929 7.27068 5.61234L7.28706 5.60036L7.30172 5.5896C7.3577 5.55147 7.41906 5.51358 7.50095 5.4664L7.52368 5.45296C7.53297 5.44734 7.5425 5.44171 7.55204 5.43634C7.61608 5.40138 7.68135 5.36985 7.74735 5.33978L7.77277 5.3278C7.78622 5.32145 7.79991 5.31509 7.81359 5.30898C7.87666 5.28185 7.94071 5.25814 8.00524 5.2354L8.02822 5.22733C8.04704 5.22073 8.06562 5.21389 8.08468 5.20778C8.14653 5.18798 8.20886 5.17087 8.27853 5.15327C8.30689 5.14618 8.335 5.13885 8.36335 5.13273C8.42373 5.11953 8.48411 5.10853 8.54498 5.099C8.5792 5.09362 8.61318 5.08849 8.6474 5.08433C8.70582 5.07724 8.764 5.07162 8.82267 5.06796C8.86007 5.06551 8.89747 5.0638 8.93511 5.06258C8.96811 5.0616 9.00111 5.06111 9.03411 5.06111ZM9.03411 5C9.00038 5 8.96689 5.00049 8.93316 5.00147C8.89478 5.00269 8.85665 5.0044 8.81851 5.00684C8.75887 5.01076 8.69922 5.01638 8.63982 5.02371C8.60487 5.02811 8.57015 5.03324 8.5352 5.03862C8.47311 5.0484 8.41151 5.05964 8.34991 5.07309C8.31862 5.07993 8.28757 5.088 8.25653 5.09582C8.19249 5.1122 8.12893 5.12956 8.06562 5.14985C8.03848 5.15865 8.0116 5.16867 7.98471 5.17796C7.91895 5.20118 7.85368 5.22538 7.78915 5.253C7.76642 5.26278 7.74417 5.27378 7.72168 5.28429C7.65446 5.31509 7.58773 5.34711 7.52246 5.3828C7.50486 5.39258 7.48775 5.40334 7.47039 5.4136C7.4017 5.45296 7.3335 5.49378 7.26726 5.539C7.2565 5.54634 7.24623 5.55465 7.23548 5.56223C7.16386 5.61234 7.09346 5.66465 7.0255 5.72136C6.9551 5.78027 6.88568 5.84114 6.81968 5.90714C4.05426 8.5386 3.80712 14.6331 10.6125 21.3877C14.6451 25.4508 18.4431 27.0001 21.4089 27.0001C23.4105 27.0001 25.0326 26.2947 26.093 25.1805C26.159 25.1145 26.2201 25.0451 26.279 24.9747C26.3358 24.907 26.3876 24.8368 26.4377 24.7657C26.4455 24.7547 26.4541 24.7442 26.4616 24.7329C26.5066 24.6669 26.5472 24.5992 26.5866 24.5308C26.5968 24.5129 26.6081 24.4956 26.6178 24.4775C26.6535 24.4124 26.6853 24.3462 26.7159 24.2792C26.7264 24.2562 26.7376 24.2337 26.7477 24.2108C26.7753 24.1467 26.7992 24.0817 26.8222 24.0162C26.8317 23.9888 26.842 23.9617 26.8508 23.9341C26.8708 23.8712 26.8882 23.8079 26.9043 23.7441C26.9124 23.7126 26.9202 23.6813 26.9273 23.6498C26.9408 23.5887 26.9518 23.5273 26.9615 23.4655C26.9672 23.4303 26.9723 23.3953 26.9767 23.3599C26.984 23.3007 26.9894 23.2415 26.9933 23.1821C26.9958 23.1435 26.9977 23.1051 26.9987 23.0665C27.0004 23.0096 27.0007 22.9529 26.9994 22.8959C26.9985 22.8546 26.9963 22.8133 26.9936 22.772C26.9901 22.7177 26.986 22.6634 26.9796 22.6094C26.9745 22.5654 26.9676 22.5216 26.9608 22.4776C26.9527 22.4263 26.9444 22.3752 26.9337 22.3244C26.9239 22.2782 26.9119 22.2325 26.9002 22.1865C26.8877 22.1384 26.8757 22.0904 26.8611 22.043C26.8462 21.9951 26.8286 21.9479 26.8114 21.9005C26.7953 21.856 26.7799 21.8113 26.7616 21.7673C26.741 21.7179 26.7173 21.67 26.6941 21.6216C26.6746 21.5808 26.6565 21.5397 26.635 21.4999C26.6078 21.4488 26.5768 21.3996 26.5467 21.3498C26.525 21.3141 26.5049 21.2774 26.4814 21.2425C26.4448 21.1875 26.404 21.1347 26.3634 21.0816C26.3421 21.0537 26.323 21.0249 26.3008 20.9978C26.236 20.9186 26.1668 20.8416 26.093 20.7677L24.0986 18.7733C24.0248 18.6995 23.9478 18.6306 23.8686 18.5655C23.8414 18.5433 23.8128 18.5245 23.7852 18.5032C23.7319 18.4626 23.6791 18.4216 23.6239 18.3849C23.5889 18.3617 23.5527 18.3419 23.517 18.3201C23.4672 18.2898 23.4178 18.2588 23.3667 18.2316C23.3269 18.2104 23.2858 18.192 23.2452 18.1727C23.1968 18.1495 23.1484 18.1258 23.099 18.1052C23.055 18.0869 23.0101 18.0715 22.9653 18.0551C22.9182 18.038 22.8715 18.0207 22.8236 18.0058C22.7756 17.9908 22.7272 17.9786 22.6788 17.9662C22.6334 17.9544 22.5879 17.9427 22.5422 17.9329C22.4909 17.9222 22.4395 17.9136 22.388 17.9055C22.3444 17.8987 22.3009 17.8918 22.2572 17.8867C22.2029 17.8804 22.1486 17.8762 22.0941 17.8728C22.0528 17.8701 22.0118 17.8679 21.9704 17.8669C21.947 17.8664 21.9235 17.8662 21.9003 17.8662C21.8666 17.8662 21.8331 17.8667 21.7993 17.8676C21.761 17.8689 21.7228 17.8706 21.6847 17.873C21.625 17.8769 21.5654 17.8826 21.506 17.8899C21.471 17.8943 21.4363 17.8994 21.4014 17.9048C21.3393 17.9146 21.2777 17.9258 21.2161 17.9393C21.1848 17.9461 21.1537 17.9542 21.1227 17.962C21.0587 17.9781 20.9951 17.9955 20.9318 18.0158C20.9047 18.0246 20.8778 18.0346 20.8509 18.0439C20.7851 18.0671 20.7199 18.0913 20.6553 18.1189C20.6326 18.1287 20.6103 18.1397 20.5879 18.1502C20.5206 18.181 20.4539 18.213 20.3886 18.2487C20.371 18.2585 20.3539 18.2693 20.3366 18.2795C20.2676 18.3191 20.1997 18.36 20.1334 18.4052C20.1227 18.4125 20.1124 18.4211 20.1017 18.4284C20.03 18.4785 19.9596 18.5306 19.8917 18.5875C19.8213 18.6464 19.7518 18.7073 19.6858 18.7733L18.3365 20.1227C18.25 20.2092 18.1368 20.2522 18.0236 20.2522C17.9104 20.2522 17.797 20.2089 17.7107 20.1227L11.878 14.2902C11.7052 14.1173 11.7052 13.837 11.878 13.6641L13.2273 12.3148C13.2933 12.2488 13.3545 12.1794 13.4131 12.109C13.4698 12.0413 13.5217 11.9711 13.5718 11.9C13.5796 11.889 13.5881 11.8785 13.5957 11.8672C13.6407 11.8012 13.6813 11.7335 13.7206 11.6651C13.7309 11.6472 13.7421 11.6299 13.7519 11.6118C13.7876 11.5468 13.8194 11.4805 13.8499 11.4135C13.8605 11.3906 13.8717 11.3681 13.8817 11.3451C13.9093 11.281 13.9333 11.216 13.9563 11.1505C13.9658 11.1231 13.9761 11.096 13.9849 11.0684C14.0049 11.0056 14.0223 10.9422 14.0384 10.8784C14.0465 10.8469 14.0543 10.8156 14.0614 10.7841C14.0748 10.723 14.0858 10.6616 14.0956 10.5998C14.1012 10.5646 14.1064 10.5296 14.1108 10.4942C14.1181 10.435 14.1235 10.3759 14.1274 10.3165C14.1298 10.2778 14.1318 10.2395 14.1328 10.2008C14.1345 10.1439 14.1347 10.0872 14.1335 10.0302C14.1325 9.9889 14.1303 9.94759 14.1276 9.90628C14.1242 9.85201 14.1201 9.79774 14.1137 9.74372C14.1086 9.69972 14.1017 9.65596 14.0949 9.61196C14.0868 9.56063 14.0785 9.50954 14.0677 9.4587C14.058 9.4125 14.046 9.36678 14.0343 9.32083C14.0218 9.27267 14.0098 9.22476 13.9951 9.17734C13.9802 9.12943 13.9626 9.08225 13.9455 9.03483C13.9294 8.99034 13.914 8.9456 13.8957 8.9016C13.8751 8.85223 13.8514 8.80431 13.8282 8.75591C13.8086 8.71509 13.7905 8.67402 13.769 8.63418C13.7419 8.58309 13.7109 8.53396 13.6808 8.48409C13.659 8.4484 13.639 8.41173 13.6155 8.37678C13.5789 8.32178 13.538 8.26898 13.4975 8.21593C13.4762 8.18807 13.4571 8.15922 13.4349 8.13209C13.3701 8.05289 13.3009 7.97589 13.2271 7.90206L11.2327 5.90763C11.1588 5.83381 11.0818 5.76487 11.0026 5.69985C10.9755 5.6776 10.9469 5.65878 10.919 5.63752C10.8657 5.59694 10.8129 5.55587 10.7577 5.5192C10.7227 5.49598 10.6866 5.47618 10.6509 5.45443C10.601 5.42411 10.5516 5.39307 10.5005 5.36594C10.4607 5.34467 10.4196 5.32634 10.3791 5.30702C10.3307 5.2838 10.2823 5.26009 10.2329 5.23956C10.1889 5.22122 10.1439 5.20582 10.0992 5.18945C10.052 5.17233 10.0053 5.15498 9.95739 5.14007C9.90947 5.12516 9.86107 5.11293 9.81267 5.10047C9.76721 5.08873 9.72174 5.077 9.67603 5.06722C9.62469 5.05647 9.57336 5.04791 9.52178 5.03984C9.47827 5.033 9.43476 5.02616 9.391 5.02102C9.33674 5.01467 9.28247 5.01051 9.22796 5.00709C9.18665 5.0044 9.14558 5.0022 9.10427 5.00122C9.08105 5.00024 9.05758 5 9.03411 5Z" fill="white"/>
</svg>
