<svg width="32" height="32" viewBox="0 0 32 32" fill="none" xmlns="http://www.w3.org/2000/svg">
<mask id="path-1-inside-1" fill="white">
<path d="M26.2788 24.975C26.3355 24.9073 26.3874 24.8372 26.4375 24.766C26.4453 24.755 26.4539 24.7445 26.4614 24.7333C26.5064 24.6673 26.547 24.5996 26.5863 24.5311C26.5966 24.5133 26.6079 24.4959 26.6176 24.4778C26.6533 24.4128 26.6851 24.3466 26.7157 24.2796C26.7262 24.2566 26.7374 24.2341 26.7474 24.2111C26.7751 24.1471 26.799 24.0821 26.822 24.0166C26.8315 23.9892 26.8418 23.9621 26.8506 23.9344C26.8706 23.8716 26.888 23.8083 26.9041 23.7445C26.9122 23.713 26.92 23.6817 26.9271 23.6501C26.9405 23.589 26.9515 23.5277 26.9613 23.4658C26.9669 23.4306 26.9721 23.3957 26.9765 23.3602C26.9838 23.3011 26.9892 23.2419 26.9931 23.1825C26.9955 23.1439 26.9975 23.1055 26.9985 23.0669C27.0002 23.0099 27.0004 22.9532 26.9992 22.8963C26.9982 22.855 26.996 22.8137 26.9933 22.7723C26.9899 22.7181 26.9858 22.6638 26.9794 22.6098C26.9743 22.5658 26.9674 22.522 26.9606 22.478C26.9525 22.4267 26.9442 22.3756 26.9335 22.3248C26.9237 22.2786 26.9117 22.2328 26.9 22.1869C26.8875 22.1387 26.8755 22.0908 26.8609 22.0434C26.8459 21.9955 26.8283 21.9483 26.8112 21.9009C26.7951 21.8564 26.7797 21.8117 26.7614 21.7677C26.7408 21.7183 26.7171 21.6704 26.6939 21.622C26.6743 21.5812 26.6563 21.5401 26.6347 21.5002C26.6076 21.4492 26.5766 21.4 26.5465 21.3502C26.5247 21.3145 26.5047 21.2778 26.4812 21.2428C26.4446 21.1878 26.4037 21.135 26.3632 21.082C26.3419 21.0541 26.3228 21.0253 26.3006 20.9981C26.2358 20.9189 26.1666 20.8419 26.0928 20.7681L24.0984 18.7737C24.0245 18.6999 23.9476 18.6309 23.8684 18.5659C23.8412 18.5437 23.8126 18.5248 23.7847 18.5036C23.7315 18.463 23.6787 18.4219 23.6234 18.3853C23.5885 18.362 23.5523 18.3422 23.5166 18.3205C23.4667 18.2902 23.4173 18.2591 23.3663 18.232C23.3264 18.2107 23.2853 18.1924 23.2448 18.1731C23.1964 18.1499 23.148 18.1262 23.0986 18.1056C23.0546 18.0873 23.0096 18.0719 22.9649 18.0555C22.9177 18.0384 22.871 18.021 22.8231 18.0061C22.7752 17.9912 22.7268 17.979 22.6784 17.9665C22.6329 17.9548 22.5875 17.9431 22.5417 17.9333C22.4904 17.9225 22.4391 17.914 22.3875 17.9059C22.344 17.8991 22.3005 17.8922 22.2567 17.8871C22.2024 17.8807 22.1482 17.8766 22.0937 17.8732C22.0524 17.8705 22.0113 17.8683 21.97 17.8673C21.9128 17.8658 21.8558 17.8663 21.7989 17.868C21.7605 17.8692 21.7224 17.871 21.6842 17.8734C21.6246 17.8773 21.5649 17.8829 21.5055 17.8903C21.4706 17.8947 21.4359 17.8998 21.4009 17.9052C21.3388 17.915 21.2772 17.9262 21.2156 17.9396C21.1843 17.9465 21.1533 17.9546 21.1222 17.9624C21.0582 17.9785 20.9946 17.9959 20.9313 18.0162C20.9042 18.025 20.8773 18.035 20.8504 18.0443C20.7847 18.0675 20.7194 18.0917 20.6549 18.1193C20.6321 18.1291 20.6099 18.1401 20.5874 18.1506C20.5202 18.1814 20.4534 18.2134 20.3882 18.2491C20.3706 18.2589 20.3535 18.2696 20.3361 18.2799C20.2672 18.3195 20.1992 18.3603 20.133 18.4056C20.1222 18.4129 20.1119 18.4214 20.1012 18.4288C20.0296 18.4789 19.9592 18.531 19.8912 18.5879C19.8208 18.6468 19.7514 18.7077 19.6854 18.7737L18.336 20.123C18.1632 20.2959 17.8828 20.2959 17.71 20.123L11.8773 14.2906C11.7045 14.1177 11.7045 13.8373 11.8773 13.6645L13.2266 12.3152C13.2926 12.2492 13.3537 12.1798 13.4127 12.1094C13.4694 12.0416 13.5212 11.9715 13.5713 11.9004C13.5791 11.8894 13.5877 11.8788 13.5953 11.8676C13.6402 11.8016 13.6808 11.7339 13.7202 11.6654C13.7304 11.6476 13.7417 11.6302 13.7515 11.6122C13.7872 11.5471 13.8189 11.4809 13.8495 11.4139C13.86 11.3909 13.8712 11.3684 13.8813 11.3455C13.9089 11.2814 13.9328 11.2164 13.9558 11.1509C13.9654 11.1235 13.9756 11.0964 13.9844 11.0688C14.0045 11.0059 14.0218 10.9426 14.038 10.8788C14.046 10.8473 14.0538 10.816 14.0609 10.7845C14.0744 10.7233 14.0854 10.662 14.0952 10.6001C14.1008 10.5649 14.1059 10.53 14.1103 10.4945C14.1176 10.4354 14.123 10.3762 14.1269 10.3168C14.1294 10.2782 14.1313 10.2398 14.1323 10.2012C14.134 10.1443 14.1343 10.0875 14.133 10.0306C14.1321 9.98928 14.1299 9.94797 14.1272 9.90665C14.1238 9.85239 14.1196 9.79812 14.1132 9.7441C14.1081 9.7001 14.1013 9.65634 14.0944 9.61234C14.0864 9.56101 14.078 9.50992 14.0673 9.45907C14.0575 9.41287 14.0455 9.36716 14.0338 9.32121C14.0213 9.27305 14.0094 9.22514 13.9947 9.17772C13.9798 9.12981 13.9622 9.08263 13.9451 9.0352C13.9289 8.99072 13.9135 8.94598 13.8952 8.90198C13.8747 8.8526 13.851 8.80469 13.8277 8.75629C13.8082 8.71547 13.7901 8.6744 13.7686 8.63456C13.7414 8.58347 13.7104 8.53433 13.6803 8.48447C13.6586 8.44878 13.6385 8.41211 13.6151 8.37716C13.5784 8.32216 13.5376 8.26936 13.497 8.21631C13.4757 8.18844 13.4567 8.1596 13.4344 8.13247C13.3696 8.05327 13.3005 7.97626 13.2266 7.90244L11.2322 5.90801C11.1584 5.83418 11.0814 5.76525 11.0022 5.70023C10.975 5.67798 10.9464 5.65916 10.9186 5.63789C10.8653 5.59732 10.8125 5.55625 10.7572 5.51958C10.7223 5.49636 10.6861 5.47656 10.6504 5.4548C10.6006 5.42449 10.5512 5.39345 10.5001 5.36631C10.4602 5.34505 10.4192 5.32671 10.3786 5.3074C10.3302 5.28418 10.2818 5.26047 10.2324 5.23994C10.1884 5.2216 10.1434 5.2062 10.0987 5.18982C10.0515 5.17271 10.0048 5.15536 9.95693 5.14045C9.90902 5.12554 9.86062 5.11331 9.81222 5.10085C9.76675 5.08911 9.72128 5.07738 9.67557 5.0676C9.62424 5.05685 9.5729 5.04829 9.52132 5.04022C9.47781 5.03338 9.4343 5.02653 9.39055 5.0214C9.33628 5.01505 9.28201 5.01089 9.2275 5.00747C9.18619 5.00478 9.14512 5.00258 9.10381 5.0016C9.04661 5.00013 8.98965 5.00062 8.9327 5.00233C8.89432 5.00356 8.85619 5.00527 8.81805 5.00771C8.75841 5.01162 8.69876 5.01725 8.63936 5.02458C8.60441 5.02898 8.5697 5.03411 8.53474 5.03949C8.47265 5.04927 8.41105 5.06051 8.34945 5.07396C8.31816 5.0808 8.28712 5.08887 8.25607 5.09669C8.19252 5.11282 8.12896 5.13018 8.06565 5.15047C8.03851 5.15927 8.01163 5.16929 7.98474 5.17858C7.91898 5.2018 7.85371 5.226 7.78918 5.25362C7.76645 5.2634 7.7442 5.2744 7.72171 5.28491C7.65449 5.31571 7.58776 5.34774 7.52249 5.38343C7.50489 5.3932 7.48778 5.40396 7.47042 5.41423C7.40173 5.45358 7.33353 5.4944 7.26729 5.53963C7.25653 5.54696 7.24627 5.55527 7.23551 5.56285C7.16389 5.61296 7.09349 5.66527 7.02553 5.72198C6.95513 5.78089 6.88571 5.84176 6.81971 5.90776C4.05429 8.53922 3.80715 14.6338 10.6125 21.3883C17.3671 28.1937 23.4616 27.9465 26.0928 25.1811C26.1591 25.1149 26.2199 25.0457 26.2788 24.975C26.2788 24.9753 26.2788 24.9753 26.2788 24.975Z"/>
</mask>
<path d="M26.2788 24.975L25.5122 24.333L25.5108 24.3346L26.2788 24.975ZM26.4375 24.766L25.6225 24.1865L25.62 24.1901L26.4375 24.766ZM26.4614 24.7333L25.6351 24.1701L25.6322 24.1744L26.4614 24.7333ZM26.5863 24.5311L25.7196 24.0324L25.7194 24.0327L26.5863 24.5311ZM26.6176 24.4778L25.741 23.9967L25.7379 24.0023L26.6176 24.4778ZM26.7157 24.2796L25.8063 23.8636L25.8059 23.8645L26.7157 24.2796ZM26.7474 24.2111L27.664 24.6109L27.6657 24.6072L26.7474 24.2111ZM26.822 24.0166L27.7656 24.3475L27.7664 24.3454L26.822 24.0166ZM26.8506 23.9344L25.8979 23.6305L25.8978 23.6309L26.8506 23.9344ZM26.9041 23.7445L25.9353 23.4967L25.9346 23.4993L26.9041 23.7445ZM26.9271 23.6501L27.9028 23.8695L27.9037 23.865L26.9271 23.6501ZM26.9613 23.4658L25.9738 23.3081L25.9736 23.3097L26.9613 23.4658ZM26.9765 23.3602L27.9689 23.4834L27.9689 23.4833L26.9765 23.3602ZM26.9931 23.1825L27.9909 23.2482L27.9911 23.2457L26.9931 23.1825ZM26.9985 23.0669L25.9989 23.0369L25.9988 23.0416L26.9985 23.0669ZM26.9992 22.8963L27.999 22.8748L27.9989 22.8726L26.9992 22.8963ZM26.9933 22.7723L25.9953 22.8353L25.9955 22.8373L26.9933 22.7723ZM26.9794 22.6098L25.9862 22.7257L25.9863 22.7266L26.9794 22.6098ZM26.9606 22.478L27.9487 22.3243L27.9485 22.3228L26.9606 22.478ZM26.9335 22.3248L27.9118 22.1178L27.9118 22.1177L26.9335 22.3248ZM26.9 22.1869L27.8689 21.9395L27.8681 21.9363L26.9 22.1869ZM26.8609 22.0434L27.8162 21.7479L27.8157 21.7462L26.8609 22.0434ZM26.8112 21.9009L27.7519 21.5615L27.7513 21.56L26.8112 21.9009ZM26.7614 21.7677L25.838 22.1516L25.8383 22.1523L26.7614 21.7677ZM26.6939 21.622L25.792 22.054L25.7923 22.0546L26.6939 21.622ZM26.6347 21.5002L25.7516 21.9693L25.7548 21.9753L26.6347 21.5002ZM26.5465 21.3502L27.4029 20.8338L27.4004 20.8296L26.5465 21.3502ZM26.4812 21.2428L25.6492 21.7975L25.651 21.8002L26.4812 21.2428ZM26.3632 21.082L25.5682 21.6887L25.5689 21.6896L26.3632 21.082ZM26.3006 20.9981L25.5265 21.6313L25.5273 21.6321L26.3006 20.9981ZM26.0928 20.7681L26.7999 20.061L26.0928 20.7681ZM24.0984 18.7737L23.3913 19.4808V19.4808L24.0984 18.7737ZM23.8684 18.5659L24.5029 17.793L24.5023 17.7926L23.8684 18.5659ZM23.7847 18.5036L24.3914 17.7086L24.3906 17.708L23.7847 18.5036ZM23.6234 18.3853L23.0701 19.2182L23.0704 19.2184L23.6234 18.3853ZM23.5166 18.3205L24.0371 17.4666L24.036 17.466L23.5166 18.3205ZM23.3663 18.232L22.8954 19.1142L22.8972 19.1152L23.3663 18.232ZM23.2448 18.1731L22.8122 19.0747L22.815 19.076L23.2448 18.1731ZM23.0986 18.1056L22.714 19.0287L22.7146 19.029L23.0986 18.1056ZM22.9649 18.0555L23.3087 17.1165L23.3058 17.1154L22.9649 18.0555ZM22.6784 17.9665L22.4285 18.9348L22.429 18.9349L22.6784 17.9665ZM22.5417 17.9333L22.7509 16.9554L22.7468 16.9545L22.5417 17.9333ZM22.3875 17.9059L22.2321 18.8938L22.233 18.8939L22.3875 17.9059ZM22.2567 17.8871L22.3732 16.8939L22.373 16.8939L22.2567 17.8871ZM22.0937 17.8732L22.0287 18.871L22.031 18.8712L22.0937 17.8732ZM21.97 17.8673L21.9443 18.867L21.9463 18.867L21.97 17.8673ZM21.7989 17.868L21.7688 16.8685L21.767 16.8685L21.7989 17.868ZM21.6842 17.8734L21.6203 16.8754L21.6188 16.8755L21.6842 17.8734ZM21.5055 17.8903L21.383 16.8978L21.3806 16.8981L21.5055 17.8903ZM21.4009 17.9052L21.2489 16.9168L21.2453 16.9173L21.4009 17.9052ZM21.2156 17.9396L21.0024 16.9626L21.0019 16.9627L21.2156 17.9396ZM21.1222 17.9624L21.3665 18.9321L21.3666 18.9321L21.1222 17.9624ZM20.9313 18.0162L20.6262 17.0639L20.6228 17.0649L20.9313 18.0162ZM20.8504 18.0443L20.5239 17.0991L20.5174 17.1013L20.8504 18.0443ZM20.6549 18.1193L20.2614 17.2L20.2598 17.2007L20.6549 18.1193ZM20.5874 18.1506L21.0039 19.0597L21.0108 19.0565L20.5874 18.1506ZM20.3882 18.2491L19.9084 17.3717L19.9025 17.375L20.3882 18.2491ZM20.3361 18.2799L20.8343 19.1471L20.8452 19.1406L20.3361 18.2799ZM20.133 18.4056L20.6963 19.2318L20.6968 19.2315L20.133 18.4056ZM20.1012 18.4288L19.5378 17.6025L19.5279 17.6094L20.1012 18.4288ZM19.8912 18.5879L20.533 19.3548L20.5336 19.3543L19.8912 18.5879ZM19.6854 18.7737L20.3925 19.4808V19.4808L19.6854 18.7737ZM18.336 20.123L17.6289 19.4159L18.336 20.123ZM17.71 20.123L18.4171 19.4159L18.4171 19.4159L17.71 20.123ZM11.8773 14.2906L11.1702 14.9977L11.1702 14.9977L11.8773 14.2906ZM11.8773 13.6645L12.5844 14.3716L12.5844 14.3716L11.8773 13.6645ZM13.2266 12.3152L12.5195 11.6081L13.2266 12.3152ZM13.4127 12.1094L12.646 11.4673L12.6458 11.4676L13.4127 12.1094ZM13.5713 11.9004L12.7563 11.3208L12.7538 11.3244L13.5713 11.9004ZM13.5953 11.8676L12.7689 11.3044L12.766 11.3087L13.5953 11.8676ZM13.7202 11.6654L12.8534 11.1667L12.8533 11.167L13.7202 11.6654ZM13.7515 11.6122L12.8748 11.131L12.8718 11.1366L13.7515 11.6122ZM13.8495 11.4139L12.9401 10.9979L12.9397 10.9989L13.8495 11.4139ZM13.8813 11.3455L14.7979 11.7453L14.7995 11.7415L13.8813 11.3455ZM13.9558 11.1509L14.8995 11.4819L14.9002 11.4797L13.9558 11.1509ZM13.9844 11.0688L13.0317 10.7648L13.0316 10.7652L13.9844 11.0688ZM14.038 10.8788L13.0691 10.631L13.0685 10.6337L14.038 10.8788ZM14.0609 10.7845L15.0366 11.0038L15.0376 10.9993L14.0609 10.7845ZM14.0952 10.6001L13.1077 10.4424L13.1074 10.444L14.0952 10.6001ZM14.1103 10.4945L15.1027 10.6177L15.1027 10.6176L14.1103 10.4945ZM14.1269 10.3168L15.1248 10.3825L15.1249 10.38L14.1269 10.3168ZM14.1323 10.2012L13.1327 10.1712L13.1326 10.1759L14.1323 10.2012ZM14.133 10.0306L15.1328 10.0091L15.1328 10.0069L14.133 10.0306ZM14.1272 9.90665L13.1292 9.96959L13.1293 9.97161L14.1272 9.90665ZM14.1132 9.7441L13.12 9.85998L13.1201 9.86094L14.1132 9.7441ZM14.0944 9.61234L15.0825 9.45863L15.0823 9.4571L14.0944 9.61234ZM14.0673 9.45907L15.0456 9.25212L15.0456 9.25202L14.0673 9.45907ZM14.0338 9.32121L15.0027 9.07382L15.0019 9.07059L14.0338 9.32121ZM13.9947 9.17772L14.95 8.88225L14.9495 8.88055L13.9947 9.17772ZM13.9451 9.0352L14.8857 8.6958L14.8852 8.69429L13.9451 9.0352ZM13.8952 8.90198L12.9718 9.28595L12.9721 9.2866L13.8952 8.90198ZM13.8277 8.75629L12.9259 9.18832L12.9261 9.18888L13.8277 8.75629ZM13.7686 8.63456L12.8854 9.10362L12.8886 9.10962L13.7686 8.63456ZM13.6803 8.48447L14.5367 7.96812L14.5342 7.96396L13.6803 8.48447ZM13.6151 8.37716L12.783 8.93186L12.7848 8.93453L13.6151 8.37716ZM13.497 8.21631L12.702 8.82298L12.7027 8.8239L13.497 8.21631ZM13.4344 8.13247L12.6604 8.76557L12.6611 8.76646L13.4344 8.13247ZM13.2266 7.90244L12.5195 8.60955L13.2266 7.90244ZM11.2322 5.90801L11.9393 5.2009V5.2009L11.2322 5.90801ZM11.0022 5.70023L11.6367 4.92733L11.6362 4.92689L11.0022 5.70023ZM10.9186 5.63789L11.5253 4.84294L11.5244 4.84229L10.9186 5.63789ZM10.7572 5.51958L10.2039 6.35253L10.2042 6.35276L10.7572 5.51958ZM10.6504 5.4548L11.1709 4.60094L11.1698 4.60028L10.6504 5.4548ZM10.5001 5.36631L10.0292 6.24852L10.031 6.24948L10.5001 5.36631ZM10.3786 5.3074L9.94601 6.209L9.94887 6.21036L10.3786 5.3074ZM10.2324 5.23994L9.8478 6.16301L9.84845 6.16328L10.2324 5.23994ZM10.0987 5.18982L10.4425 4.25078L10.4397 4.24975L10.0987 5.18982ZM9.81222 5.10085L9.56234 6.06912L9.56278 6.06924L9.81222 5.10085ZM9.67557 5.0676L9.88474 4.08971L9.88064 4.08885L9.67557 5.0676ZM9.52132 5.04022L9.36593 6.02808L9.3668 6.02821L9.52132 5.04022ZM9.39055 5.0214L9.50707 4.02821L9.50687 4.02819L9.39055 5.0214ZM9.2275 5.00747L9.16255 6.00536L9.16484 6.0055L9.2275 5.00747ZM9.10381 5.0016L9.07818 6.00127L9.08015 6.00132L9.10381 5.0016ZM8.9327 5.00233L8.90267 4.00278L8.90087 4.00284L8.9327 5.00233ZM8.81805 5.00771L8.75408 4.00976L8.75262 4.00986L8.81805 5.00771ZM8.63936 5.02458L8.51684 4.03211L8.51447 4.03241L8.63936 5.02458ZM8.53474 5.03949L8.38268 4.05111L8.37918 4.05166L8.53474 5.03949ZM8.34945 5.07396L8.13622 4.09696L8.13575 4.09706L8.34945 5.07396ZM8.25607 5.09669L8.01174 4.127L8.01003 4.12743L8.25607 5.09669ZM8.06565 5.15047L7.76047 4.19817L7.75714 4.19925L8.06565 5.15047ZM7.98474 5.17858L7.65821 4.23337L7.65173 4.23565L7.98474 5.17858ZM7.78918 5.25362L7.39568 4.3343L7.39407 4.33499L7.78918 5.25362ZM7.72171 5.28491L8.13827 6.19406L8.14514 6.19085L7.72171 5.28491ZM7.52249 5.38343L7.04271 4.50601L7.03685 4.50927L7.52249 5.38343ZM7.47042 5.41423L7.96761 6.28198L7.97956 6.27491L7.47042 5.41423ZM7.26729 5.53963L7.83062 6.36585L7.8311 6.36553L7.26729 5.53963ZM7.23551 5.56285L7.80879 6.38222L7.81146 6.38033L7.23551 5.56285ZM7.02553 5.72198L6.3848 4.95421L6.38378 4.95507L7.02553 5.72198ZM6.81971 5.90776L7.50905 6.6322L7.51804 6.62364L7.52681 6.61487L6.81971 5.90776ZM10.6125 21.3883L11.3223 20.6838L11.317 20.6785L10.6125 21.3883ZM26.0928 25.1811L25.3857 24.474L25.3769 24.4828L25.3683 24.4918L26.0928 25.1811ZM27.0455 25.6171C27.1272 25.5195 27.1969 25.4244 27.255 25.342L25.62 24.1901C25.5778 24.25 25.5439 24.2952 25.5122 24.333L27.0455 25.6171ZM27.2524 25.3456C27.2483 25.3514 27.2453 25.3553 27.245 25.3559C27.2447 25.3562 27.2448 25.3561 27.2455 25.3551C27.2458 25.3547 27.2478 25.3521 27.249 25.3505C27.2542 25.3436 27.2715 25.3207 27.2907 25.2921L25.6322 24.1744C25.6385 24.165 25.6437 24.1578 25.6466 24.1538C25.6494 24.15 25.6511 24.1476 25.6501 24.149C25.6493 24.1501 25.6492 24.1502 25.6475 24.1525C25.6462 24.1542 25.6442 24.1569 25.642 24.1599C25.6375 24.1658 25.6306 24.1752 25.6225 24.1865L27.2524 25.3456ZM27.2878 25.2964C27.3536 25.1999 27.4087 25.1071 27.4533 25.0296L25.7194 24.0327C25.6853 24.092 25.6592 24.1347 25.6351 24.1701L27.2878 25.2964ZM27.4531 25.0298C27.4514 25.0327 27.4506 25.0341 27.4518 25.0322C27.4545 25.0277 27.4533 25.0296 27.4589 25.0204C27.4654 25.0095 27.4808 24.984 27.4973 24.9534L25.7379 24.0023C25.7417 23.9953 25.7446 23.9904 25.7458 23.9883C25.7469 23.9864 25.7472 23.9859 25.7455 23.9888C25.7445 23.9903 25.7437 23.9917 25.7421 23.9943C25.7407 23.9967 25.7387 23.9999 25.7366 24.0034C25.7324 24.0104 25.7264 24.0206 25.7196 24.0324L27.4531 25.0298ZM27.4943 24.959C27.5468 24.8633 27.5901 24.7722 27.6255 24.6946L25.8059 23.8645C25.7801 23.921 25.7599 23.9623 25.741 23.9967L27.4943 24.959ZM27.625 24.6956C27.6267 24.6918 27.6277 24.6898 27.6357 24.6731C27.6417 24.6602 27.6525 24.6373 27.664 24.6109L25.8308 23.8114C25.8323 23.808 25.8325 23.8078 25.8278 23.8177C25.8267 23.82 25.8256 23.8223 25.8241 23.8255C25.8227 23.8284 25.821 23.8319 25.8193 23.8357C25.8158 23.8432 25.8112 23.8528 25.8063 23.8636L27.625 24.6956ZM27.6657 24.6072C27.7069 24.5116 27.7398 24.4213 27.7656 24.3475L25.8784 23.6856C25.8583 23.7428 25.8432 23.7826 25.8292 23.8151L27.6657 24.6072ZM27.7664 24.3454C27.7699 24.3354 27.7707 24.3333 27.7787 24.3107C27.7848 24.2938 27.7939 24.2678 27.8034 24.238L25.8978 23.6309C25.8985 23.6287 25.8981 23.6301 25.8944 23.6405C25.8923 23.6464 25.8909 23.6503 25.8876 23.6594C25.8849 23.667 25.8814 23.6769 25.8776 23.6877L27.7664 24.3454ZM27.8033 24.2384C27.8315 24.15 27.8544 24.0657 27.8736 23.9897L25.9346 23.4993C25.9216 23.5509 25.9098 23.5933 25.8979 23.6305L27.8033 24.2384ZM27.8729 23.9923C27.8817 23.9582 27.8924 23.9156 27.9028 23.8695L25.9515 23.4308C25.9476 23.4478 25.9427 23.4677 25.9353 23.4967L27.8729 23.9923ZM27.9037 23.865C27.9227 23.7789 27.9372 23.697 27.9491 23.622L25.9736 23.3097C25.9659 23.3584 25.9584 23.3992 25.9505 23.4353L27.9037 23.865ZM27.9488 23.6236C27.9557 23.5803 27.9627 23.5334 27.9689 23.4834L25.9841 23.237C25.9815 23.258 25.9782 23.281 25.9738 23.3081L27.9488 23.6236ZM27.9689 23.4833C27.9789 23.4026 27.9859 23.3241 27.9909 23.2482L25.9953 23.1168C25.9924 23.1597 25.9887 23.1996 25.9841 23.2372L27.9689 23.4833ZM27.9911 23.2457C27.994 23.1992 27.9968 23.1475 27.9982 23.0922L25.9988 23.0416C25.9982 23.0636 25.997 23.0885 25.9951 23.1194L27.9911 23.2457ZM27.998 23.0969C28.0003 23.0228 28.0006 22.949 27.999 22.8748L25.9994 22.9177C26.0003 22.9575 26.0001 22.997 25.9989 23.0369L27.998 23.0969ZM27.9989 22.8726C27.9975 22.8122 27.9944 22.7559 27.9912 22.7074L25.9955 22.8373C25.9977 22.8714 25.999 22.8977 25.9995 22.9199L27.9989 22.8726ZM27.9914 22.7094C27.9875 22.6473 27.982 22.5728 27.9726 22.4929L25.9863 22.7266C25.9896 22.7548 25.9924 22.7888 25.9953 22.8353L27.9914 22.7094ZM27.9727 22.4939C27.9649 22.4275 27.9549 22.3643 27.9487 22.3243L25.9725 22.6317C25.9799 22.6798 25.9836 22.7041 25.9862 22.7257L27.9727 22.4939ZM27.9485 22.3228C27.9403 22.2706 27.9285 22.1967 27.9118 22.1178L25.9551 22.5317C25.9599 22.5545 25.9648 22.5828 25.9727 22.6333L27.9485 22.3228ZM27.9118 22.1177C27.8966 22.0461 27.8781 21.9757 27.8689 21.9395L25.9311 22.4343C25.9453 22.49 25.9507 22.511 25.9551 22.5318L27.9118 22.1177ZM27.8681 21.9363C27.8588 21.9004 27.8396 21.8235 27.8162 21.7479L25.9055 22.3389C25.9115 22.3581 25.9162 22.3771 25.9319 22.4375L27.8681 21.9363ZM27.8157 21.7462C27.7922 21.6709 27.7637 21.5944 27.7519 21.5615L25.8706 22.2403C25.893 22.3023 25.8997 22.3201 25.906 22.3406L27.8157 21.7462ZM27.7513 21.56C27.7427 21.5361 27.7147 21.4556 27.6844 21.3831L25.8383 22.1523C25.8447 22.1678 25.8475 22.1767 25.8711 22.2418L27.7513 21.56ZM27.6847 21.3837C27.651 21.3027 27.6111 21.2219 27.5955 21.1894L25.7923 22.0546C25.8231 22.1188 25.8306 22.1339 25.838 22.1516L27.6847 21.3837ZM27.5958 21.1899C27.5946 21.1874 27.5513 21.093 27.5147 21.0252L25.7548 21.9753C25.7535 21.973 25.7549 21.9753 25.7616 21.9894C25.765 21.9967 25.7684 22.0039 25.7738 22.0154C25.7786 22.0257 25.7851 22.0395 25.792 22.054L27.5958 21.1899ZM27.5179 21.0312C27.4739 20.9483 27.4183 20.8594 27.4029 20.8338L25.6901 21.8665C25.7348 21.9406 25.7413 21.95 25.7516 21.9693L27.5179 21.0312ZM27.4004 20.8296C27.3935 20.8184 27.3933 20.8176 27.3748 20.7865C27.3613 20.7636 27.3391 20.7265 27.3115 20.6855L25.651 21.8002C25.6469 21.7941 25.6464 21.7929 25.6542 21.806C25.659 21.8141 25.6612 21.8179 25.6689 21.8309C25.675 21.8414 25.6833 21.8554 25.6926 21.8707L27.4004 20.8296ZM27.3133 20.6881C27.2547 20.6002 27.1913 20.5187 27.1574 20.4744L25.5689 21.6896C25.6162 21.7514 25.6345 21.7755 25.6492 21.7975L27.3133 20.6881ZM27.1581 20.4753C27.1593 20.4769 27.1591 20.4767 27.1562 20.4727C27.1506 20.465 27.1518 20.4666 27.142 20.4531C27.1298 20.4362 27.105 20.402 27.0739 20.3642L25.5273 21.6321C25.5185 21.6214 25.5143 21.6153 25.5224 21.6265C25.5243 21.6291 25.5261 21.6316 25.5291 21.6357C25.5317 21.6393 25.5351 21.6441 25.5388 21.6492C25.5462 21.6593 25.5564 21.6731 25.5682 21.6887L27.1581 20.4753ZM27.0747 20.365C26.9901 20.2617 26.8987 20.1598 26.7999 20.061L25.3857 21.4752C25.4346 21.5241 25.4815 21.5762 25.5265 21.6313L27.0747 20.365ZM26.7999 20.061L24.8055 18.0666L23.3913 19.4808L25.3857 21.4752L26.7999 20.061ZM24.8055 18.0666C24.7059 17.967 24.6043 17.8763 24.5029 17.793L23.2338 19.3388C23.2908 19.3856 23.3432 19.4327 23.3913 19.4808L24.8055 18.0666ZM24.5023 17.7926C24.4642 17.7613 24.4298 17.7364 24.4129 17.7241C24.3996 17.7145 24.4009 17.7155 24.3935 17.7101C24.3897 17.7073 24.3897 17.7073 24.3914 17.7086L23.1781 19.2985C23.1938 19.3105 23.2078 19.3208 23.218 19.3282C23.2231 19.3319 23.2279 19.3354 23.2316 19.338C23.2357 19.341 23.2381 19.3427 23.2408 19.3446C23.2519 19.3527 23.2454 19.3483 23.2344 19.3392L24.5023 17.7926ZM24.3906 17.708C24.3504 17.6774 24.2656 17.6113 24.1764 17.5521L23.0704 19.2184C23.0917 19.2326 23.1125 19.2486 23.1789 19.2992L24.3906 17.708ZM24.1768 17.5523C24.1372 17.526 24.1015 17.5047 24.0794 17.4916C24.05 17.4743 24.0476 17.473 24.0371 17.4666L22.9961 19.1743C23.0113 19.1836 23.0251 19.1918 23.0357 19.198C23.0409 19.2011 23.0462 19.2042 23.0502 19.2066C23.0546 19.2092 23.058 19.2112 23.0612 19.213C23.0748 19.2211 23.0747 19.2213 23.0701 19.2182L24.1768 17.5523ZM24.036 17.466C24.0045 17.4468 23.9196 17.3936 23.8353 17.3488L22.8972 19.1152C22.9151 19.1247 22.9289 19.1335 22.9972 19.175L24.036 17.466ZM23.8371 17.3498C23.7702 17.3141 23.6859 17.2755 23.6745 17.2701L22.815 19.076C22.8284 19.0824 22.8413 19.0885 22.8512 19.0931C22.8619 19.0981 22.8695 19.1016 22.8766 19.105C22.8834 19.1083 22.888 19.1105 22.8913 19.1121C22.8945 19.1137 22.8956 19.1143 22.8954 19.1142L23.8371 17.3498ZM23.6774 17.2715C23.6409 17.254 23.5628 17.2156 23.4826 17.1823L22.7146 19.029C22.7331 19.0367 22.7519 19.0457 22.8122 19.0747L23.6774 17.2715ZM23.4832 17.1825C23.4122 17.153 23.3271 17.1232 23.3087 17.1165L22.6211 18.9945C22.6921 19.0206 22.6969 19.0216 22.714 19.0287L23.4832 17.1825ZM23.3058 17.1154C23.2701 17.1025 23.196 17.0749 23.1203 17.0513L22.5259 18.961C22.546 18.9672 22.5653 18.9743 22.6239 18.9956L23.3058 17.1154ZM23.1203 17.0513C23.0434 17.0274 22.9676 17.0084 22.9278 16.9981L22.429 18.9349C22.486 18.9496 22.507 18.9551 22.5259 18.961L23.1203 17.0513ZM22.9283 16.9983C22.8863 16.9874 22.8205 16.9703 22.7509 16.9554L22.3326 18.9112C22.3544 18.9158 22.3796 18.9222 22.4285 18.9348L22.9283 16.9983ZM22.7468 16.9545C22.6701 16.9385 22.5987 16.9268 22.542 16.9179L22.233 18.8939C22.2795 18.9012 22.3107 18.9066 22.3367 18.912L22.7468 16.9545ZM22.5429 16.9181C22.5026 16.9117 22.4397 16.9017 22.3732 16.8939L22.1402 18.8803C22.1612 18.8827 22.1854 18.8864 22.2321 18.8938L22.5429 16.9181ZM22.373 16.8939C22.2933 16.8845 22.2189 16.879 22.1563 16.8751L22.031 18.8712C22.0775 18.8741 22.1116 18.8769 22.1404 18.8803L22.373 16.8939ZM22.1586 16.8753C22.1103 16.8721 22.0542 16.869 21.9936 16.8676L21.9463 18.867C21.9684 18.8675 21.9944 18.8688 22.0287 18.871L22.1586 16.8753ZM21.9956 16.8676C21.9159 16.8656 21.8399 16.8663 21.7688 16.8685L21.8289 18.8676C21.8718 18.8663 21.9097 18.8661 21.9443 18.867L21.9956 16.8676ZM21.767 16.8685C21.7201 16.87 21.6711 16.8722 21.6203 16.8754L21.7482 18.8713C21.7736 18.8697 21.8009 18.8685 21.8307 18.8675L21.767 16.8685ZM21.6188 16.8755C21.5402 16.8807 21.4615 16.8881 21.383 16.8978L21.6281 18.8827C21.6684 18.8777 21.709 18.8739 21.7497 18.8713L21.6188 16.8755ZM21.3806 16.8981C21.3321 16.9042 21.2869 16.911 21.2489 16.9168L21.553 18.8935C21.5848 18.8886 21.609 18.8851 21.6304 18.8824L21.3806 16.8981ZM21.2453 16.9173C21.1673 16.9296 21.0862 16.9444 21.0024 16.9626L21.4289 18.9166C21.4683 18.908 21.5103 18.9003 21.5565 18.893L21.2453 16.9173ZM21.0019 16.9627C20.9508 16.9739 20.8986 16.9875 20.8779 16.9927L21.3666 18.9321C21.4079 18.9216 21.4178 18.9191 21.4293 18.9165L21.0019 16.9627ZM20.878 16.9927C20.8017 17.0119 20.7163 17.035 20.6262 17.0639L21.2365 18.9684C21.2729 18.9568 21.3146 18.9451 21.3665 18.9321L20.878 16.9927ZM20.6228 17.0649C20.5964 17.0735 20.5729 17.0818 20.5573 17.0873C20.5378 17.0942 20.5327 17.096 20.5239 17.0991L21.1769 18.9895C21.1873 18.9859 21.1969 18.9825 21.2046 18.9798C21.2084 18.9784 21.2123 18.977 21.2154 18.9759C21.2188 18.9747 21.2216 18.9737 21.2243 18.9728C21.2297 18.9709 21.2333 18.9696 21.2361 18.9686C21.2388 18.9677 21.2399 18.9674 21.2398 18.9674L20.6228 17.0649ZM20.5174 17.1013C20.4431 17.1276 20.3547 17.16 20.2614 17.2L21.0484 19.0386C21.084 19.0234 21.1262 19.0074 21.1834 18.9872L20.5174 17.1013ZM20.2598 17.2007C20.2329 17.2122 20.2097 17.223 20.1946 17.2301C20.1707 17.2414 20.1767 17.2387 20.164 17.2447L21.0108 19.0565C21.0195 19.0525 21.0275 19.0487 21.0334 19.0459C21.04 19.0427 21.0436 19.041 21.0474 19.0392C21.0548 19.0358 21.0541 19.0362 21.05 19.0379L20.2598 17.2007ZM20.1709 17.2415C20.0941 17.2766 20.0033 17.3198 19.9084 17.3717L20.8679 19.1265C20.9035 19.107 20.9462 19.0861 21.0039 19.0597L20.1709 17.2415ZM19.9025 17.375C19.8788 17.3881 19.8587 17.4001 19.8471 17.4071C19.8303 17.4172 19.8323 17.4161 19.827 17.4192L20.8452 19.1406C20.8532 19.1359 20.8604 19.1316 20.8655 19.1285C20.8718 19.1247 20.8735 19.1236 20.877 19.1216C20.8827 19.1181 20.8799 19.1199 20.8738 19.1233L19.9025 17.375ZM19.838 17.4128C19.759 17.4582 19.666 17.5136 19.5692 17.5797L20.6968 19.2315C20.7325 19.2071 20.7754 19.1808 20.8342 19.147L19.838 17.4128ZM19.5696 17.5793C19.5537 17.5902 19.5406 17.5997 19.5317 17.6062C19.5234 17.6124 19.516 17.618 19.5141 17.6194C19.5107 17.622 19.5129 17.6203 19.5159 17.6181C19.5195 17.6155 19.5273 17.6098 19.5379 17.6025L20.6645 19.255C20.6805 19.2441 20.6936 19.2346 20.7024 19.2281C20.7108 19.222 20.7182 19.2163 20.72 19.2149C20.7235 19.2123 20.7213 19.214 20.7182 19.2163C20.7147 19.2189 20.7069 19.2246 20.6963 19.2318L19.5696 17.5793ZM19.5279 17.6094C19.4426 17.6691 19.3469 17.7394 19.2489 17.8215L20.5336 19.3543C20.5715 19.3225 20.6165 19.2887 20.6745 19.2481L19.5279 17.6094ZM19.2495 17.821C19.1683 17.8889 19.0739 17.971 18.9783 18.0666L20.3925 19.4808C20.4289 19.4444 20.4733 19.4048 20.533 19.3548L19.2495 17.821ZM18.9783 18.0666L17.6289 19.4159L19.0432 20.8301L20.3925 19.4808L18.9783 18.0666ZM17.6289 19.4159C17.8466 19.1982 18.1994 19.1982 18.4171 19.4159L17.0029 20.8301C17.5663 21.3935 18.4798 21.3935 19.0432 20.8301L17.6289 19.4159ZM18.4171 19.4159L12.5844 13.5834L11.1702 14.9977L17.0029 20.8302L18.4171 19.4159ZM12.5844 13.5834C12.8021 13.8011 12.8021 14.1539 12.5844 14.3716L11.1702 12.9574C10.6068 13.5208 10.6068 14.4343 11.1702 14.9977L12.5844 13.5834ZM12.5844 14.3716L13.9337 13.0223L12.5195 11.6081L11.1702 12.9574L12.5844 14.3716ZM13.9337 13.0223C14.0286 12.9274 14.1107 12.8335 14.1796 12.7511L12.6458 11.4676C12.5968 11.5261 12.5567 11.5709 12.5195 11.6081L13.9337 13.0223ZM14.1793 12.7514C14.2611 12.6538 14.3308 12.5587 14.3888 12.4763L12.7538 11.3244C12.7116 11.3843 12.6777 11.4295 12.646 11.4673L14.1793 12.7514ZM14.3863 12.4799C14.3821 12.4857 14.3792 12.4897 14.3788 12.4902C14.3786 12.4905 14.3786 12.4904 14.3793 12.4894C14.3796 12.4891 14.3816 12.4864 14.3828 12.4848C14.388 12.4779 14.4053 12.455 14.4245 12.4265L12.766 11.3087C12.7724 11.2993 12.7775 11.2921 12.7804 11.2881C12.7832 11.2843 12.785 11.2819 12.7839 11.2834C12.7831 11.2844 12.7831 11.2845 12.7813 11.2868C12.78 11.2885 12.778 11.2912 12.7758 11.2942C12.7714 11.3001 12.7644 11.3095 12.7564 11.3208L14.3863 12.4799ZM14.4216 12.4307C14.4874 12.3342 14.5425 12.2415 14.5871 12.1639L12.8533 11.167C12.8191 11.2263 12.7931 11.269 12.7689 11.3045L14.4216 12.4307ZM14.587 12.1641C14.5853 12.1671 14.5845 12.1684 14.5856 12.1665C14.5883 12.162 14.5871 12.1639 14.5927 12.1547C14.5993 12.1438 14.6146 12.1183 14.6312 12.0877L12.8718 11.1366C12.8755 11.1296 12.8784 11.1247 12.8796 11.1226C12.8807 11.1207 12.881 11.1202 12.8793 11.1231C12.8784 11.1246 12.8776 11.126 12.8759 11.1286C12.8745 11.131 12.8726 11.1342 12.8705 11.1377C12.8663 11.1447 12.8602 11.1549 12.8534 11.1667L14.587 12.1641ZM14.6281 12.0933C14.6806 11.9976 14.7239 11.9065 14.7593 11.829L12.9397 10.9989C12.9139 11.0553 12.8937 11.0966 12.8748 11.131L14.6281 12.0933ZM14.7589 11.8299C14.7606 11.8261 14.7616 11.8241 14.7695 11.8074C14.7756 11.7945 14.7864 11.7716 14.7979 11.7453L12.9647 10.9457C12.9661 10.9423 12.9663 10.9421 12.9616 10.952C12.9605 10.9544 12.9594 10.9566 12.9579 10.9598C12.9566 10.9627 12.9549 10.9663 12.9531 10.97C12.9496 10.9775 12.945 10.9871 12.9401 10.9979L14.7589 11.8299ZM14.7995 11.7415C14.8407 11.6459 14.8736 11.5556 14.8995 11.4819L13.0122 10.8199C12.9921 10.8772 12.9771 10.9169 12.963 10.9494L14.7995 11.7415ZM14.9002 11.4797C14.9037 11.4697 14.9045 11.4676 14.9126 11.445C14.9186 11.4281 14.9277 11.4021 14.9372 11.3723L13.0316 10.7652C13.0323 10.763 13.0319 10.7644 13.0282 10.7748C13.0261 10.7807 13.0247 10.7846 13.0215 10.7937C13.0187 10.8013 13.0152 10.8112 13.0114 10.822L14.9002 11.4797ZM14.9371 11.3727C14.9653 11.2843 14.9882 11.2 15.0074 11.124L13.0685 10.6337C13.0554 10.6852 13.0436 10.7276 13.0317 10.7648L14.9371 11.3727ZM15.0068 11.1267C15.0155 11.0925 15.0262 11.0499 15.0366 11.0038L13.0853 10.5651C13.0815 10.5821 13.0766 10.602 13.0692 10.631L15.0068 11.1267ZM15.0376 10.9993C15.0565 10.9132 15.071 10.8312 15.0829 10.7563L13.1074 10.444C13.0997 10.4927 13.0922 10.5335 13.0843 10.5696L15.0376 10.9993ZM15.0826 10.7579C15.0896 10.7146 15.0965 10.6677 15.1027 10.6177L13.1179 10.3714C13.1153 10.3923 13.112 10.4153 13.1077 10.4424L15.0826 10.7579ZM15.1027 10.6176C15.1127 10.5369 15.1198 10.4584 15.1248 10.3825L13.1291 10.2511C13.1263 10.294 13.1226 10.3339 13.1179 10.3715L15.1027 10.6176ZM15.1249 10.38C15.1279 10.3336 15.1306 10.2818 15.132 10.2265L13.1326 10.1759C13.1321 10.1979 13.1309 10.2228 13.1289 10.2537L15.1249 10.38ZM15.1319 10.2312C15.1341 10.1571 15.1344 10.0833 15.1328 10.0091L13.1333 10.052C13.1341 10.0918 13.134 10.1314 13.1328 10.1712L15.1319 10.2312ZM15.1328 10.0069C15.1313 9.94656 15.1282 9.89022 15.1251 9.8417L13.1293 9.97161C13.1315 10.0057 13.1328 10.032 13.1333 10.0543L15.1328 10.0069ZM15.1252 9.84372C15.1213 9.78163 15.1158 9.70708 15.1064 9.62726L13.1201 9.86094C13.1234 9.88916 13.1262 9.92314 13.1292 9.96959L15.1252 9.84372ZM15.1065 9.62822C15.0988 9.56181 15.0888 9.49862 15.0825 9.45863L13.1063 9.76605C13.1138 9.81406 13.1175 9.83838 13.12 9.85998L15.1065 9.62822ZM15.0823 9.4571C15.0741 9.40492 15.0623 9.33103 15.0456 9.25212L13.0889 9.66603C13.0938 9.68881 13.0986 9.7171 13.1065 9.76758L15.0823 9.4571ZM15.0456 9.25202C15.0305 9.18044 15.012 9.11001 15.0027 9.07382L13.0649 9.56859C13.0791 9.62431 13.0846 9.64531 13.089 9.66613L15.0456 9.25202ZM15.0019 9.07059C14.9926 9.03468 14.9734 8.95783 14.95 8.88225L13.0393 9.47319C13.0453 9.49245 13.0501 9.51142 13.0657 9.57183L15.0019 9.07059ZM14.9495 8.88055C14.9261 8.8052 14.8976 8.72867 14.8857 8.6958L13.0044 9.37461C13.0268 9.43659 13.0335 9.45441 13.0399 9.47488L14.9495 8.88055ZM14.8852 8.69429C14.8765 8.67044 14.8485 8.58989 14.8183 8.51737L12.9721 9.2866C12.9786 9.30208 12.9814 9.31099 13.005 9.37612L14.8852 8.69429ZM14.8185 8.51802C14.7849 8.43704 14.7449 8.35624 14.7293 8.32371L12.9261 9.18888C12.957 9.25314 12.9645 9.26817 12.9718 9.28595L14.8185 8.51802ZM14.7296 8.32426C14.7284 8.32178 14.6852 8.22734 14.6485 8.15949L12.8886 9.10962C12.8874 9.10727 12.8887 9.10963 12.8954 9.12373C12.8989 9.13097 12.9022 9.13818 12.9076 9.14969C12.9125 9.16006 12.9189 9.17378 12.9259 9.18832L14.7296 8.32426ZM14.6517 8.16551C14.6077 8.0826 14.5522 7.99374 14.5367 7.96812L12.8239 9.00081C12.8686 9.07493 12.8752 9.08433 12.8854 9.10361L14.6517 8.16551ZM14.5342 7.96396C14.5273 7.95274 14.5271 7.95196 14.5087 7.92078C14.4951 7.89789 14.4729 7.86086 14.4453 7.81978L12.7848 8.93453C12.7807 8.92841 12.7803 8.92719 12.788 8.9403C12.7928 8.94838 12.795 8.95221 12.8027 8.96526C12.8089 8.97571 12.8172 8.9897 12.8265 9.00497L14.5342 7.96396ZM14.4471 7.82246C14.3885 7.73452 14.3252 7.65305 14.2912 7.60872L12.7027 8.8239C12.75 8.88566 12.7683 8.9098 12.783 8.93186L14.4471 7.82246ZM14.2919 7.60964C14.2932 7.61123 14.293 7.61103 14.2901 7.60705C14.2844 7.5993 14.2857 7.60091 14.2759 7.58741C14.2636 7.57047 14.2388 7.53633 14.2078 7.49847L12.6611 8.76646C12.6523 8.75573 12.6481 8.74958 12.6563 8.76081C12.6582 8.76343 12.66 8.76593 12.6629 8.76999C12.6655 8.77364 12.669 8.77841 12.6727 8.78349C12.68 8.7936 12.6902 8.80746 12.702 8.82298L14.2919 7.60964ZM14.2085 7.49936C14.1239 7.39599 14.0325 7.29411 13.9337 7.19534L12.5195 8.60955C12.5684 8.65842 12.6153 8.71054 12.6604 8.76557L14.2085 7.49936ZM13.9337 7.19534L11.9393 5.2009L10.5251 6.61511L12.5195 8.60955L13.9337 7.19534ZM11.9393 5.2009C11.8397 5.10133 11.7381 5.01057 11.6367 4.92733L10.3676 6.47312C10.4247 6.51993 10.477 6.56703 10.5251 6.61511L11.9393 5.2009ZM11.6362 4.92689C11.598 4.8956 11.5637 4.87068 11.5467 4.85843C11.5335 4.84885 11.5347 4.84979 11.5273 4.84444C11.5235 4.84165 11.5235 4.84159 11.5253 4.84294L10.3119 6.43285C10.3276 6.44483 10.3416 6.4551 10.3518 6.46252C10.357 6.46624 10.3618 6.4697 10.3654 6.47234C10.3695 6.4753 10.372 6.47707 10.3746 6.47896C10.3857 6.48699 10.3792 6.48261 10.3682 6.47356L11.6362 4.92689ZM11.5244 4.84229C11.4842 4.8117 11.3995 4.74561 11.3102 4.6864L10.2042 6.35276C10.2255 6.36689 10.2464 6.38293 10.3128 6.43349L11.5244 4.84229ZM11.3106 4.68664C11.271 4.66035 11.2354 4.63904 11.2132 4.62592C11.1838 4.60857 11.1814 4.60732 11.1709 4.60094L10.1299 6.30866C10.1451 6.31791 10.159 6.32613 10.1695 6.33236C10.1747 6.33542 10.1801 6.33855 10.1841 6.34091C10.1884 6.34347 10.1919 6.34549 10.195 6.34736C10.2086 6.35539 10.2085 6.35559 10.2039 6.35253L11.3106 4.68664ZM11.1698 4.60028C11.1383 4.58114 11.0534 4.5279 10.9691 4.48314L10.031 6.24948C10.0489 6.259 10.0628 6.26784 10.131 6.30933L11.1698 4.60028ZM10.971 4.48411C10.904 4.44838 10.8197 4.40987 10.8083 4.40444L9.94887 6.21036C9.96225 6.21673 9.97516 6.22277 9.985 6.22738C9.99574 6.23241 10.0033 6.23594 10.0104 6.23934C10.0172 6.24258 10.0218 6.24481 10.0251 6.24643C10.0283 6.24802 10.0295 6.24865 10.0292 6.24852L10.971 4.48411ZM10.8112 4.40581C10.7747 4.38831 10.6966 4.34996 10.6164 4.31659L9.84845 6.16328C9.86697 6.17098 9.88569 6.18006 9.94601 6.209L10.8112 4.40581ZM10.617 4.31686C10.5461 4.28729 10.4609 4.25752 10.4425 4.25078L9.7549 6.12887C9.82598 6.15489 9.83077 6.15592 9.8478 6.16301L10.617 4.31686ZM10.4397 4.24975C10.4039 4.23678 10.3298 4.20919 10.2541 4.18562L9.65976 6.09527C9.67985 6.10153 9.69914 6.10865 9.75775 6.1299L10.4397 4.24975ZM10.2541 4.18562C10.1772 4.16169 10.1014 4.14269 10.0616 4.13245L9.56278 6.06924C9.61983 6.08393 9.64084 6.08938 9.65976 6.09527L10.2541 4.18562ZM10.0621 4.13257C10.0201 4.12173 9.95434 4.10461 9.88474 4.08972L9.4664 6.04548C9.48822 6.05015 9.51342 6.0565 9.56234 6.06912L10.0621 4.13257ZM9.88064 4.08885C9.80391 4.07278 9.73252 4.0611 9.67584 4.05223L9.3668 6.02821C9.41329 6.03548 9.44457 6.04092 9.4705 6.04635L9.88064 4.08885ZM9.67672 4.05237C9.63644 4.04603 9.57356 4.03601 9.50707 4.02821L9.27403 6.01459C9.29505 6.01706 9.31919 6.02072 9.36593 6.02808L9.67672 4.05237ZM9.50687 4.02819C9.42709 4.01885 9.35275 4.01336 9.29016 4.00943L9.16484 6.0055C9.21128 6.00842 9.24547 6.01124 9.27422 6.01461L9.50687 4.02819ZM9.29245 4.00958C9.24418 4.00644 9.188 4.00331 9.12747 4.00188L9.08015 6.00132C9.10224 6.00184 9.1282 6.00312 9.16255 6.00536L9.29245 4.00958ZM9.12944 4.00193C9.04972 3.99989 8.97372 4.00065 8.90267 4.00279L8.96273 6.00188C9.00559 6.0006 9.0435 6.00038 9.07818 6.00127L9.12944 4.00193ZM8.90087 4.00284C8.85395 4.00434 8.80489 4.0065 8.75408 4.00976L8.88202 6.00566C8.90748 6.00403 8.93469 6.00278 8.96453 6.00183L8.90087 4.00284ZM8.75262 4.00986C8.674 4.01501 8.59531 4.02242 8.51684 4.03211L8.76189 6.01704C8.80221 6.01207 8.84282 6.00824 8.88349 6.00557L8.75262 4.00986ZM8.51447 4.03241C8.46597 4.03851 8.42073 4.04527 8.38268 4.05112L8.6868 6.02786C8.71867 6.02296 8.74284 6.01944 8.76425 6.01675L8.51447 4.03241ZM8.37918 4.05166C8.30115 4.06395 8.22001 4.07867 8.13622 4.09696L8.56268 6.05096C8.60209 6.04236 8.64415 6.03458 8.6903 6.02732L8.37918 4.05166ZM8.13575 4.09706C8.08468 4.10823 8.03249 4.12177 8.01174 4.127L8.5004 6.06638C8.54174 6.05597 8.55164 6.05337 8.56315 6.05086L8.13575 4.09706ZM8.01003 4.12743C7.93554 4.14634 7.85048 4.16933 7.76047 4.19817L8.37082 6.10276C8.40744 6.09103 8.44949 6.07931 8.50211 6.06595L8.01003 4.12743ZM7.75714 4.19925C7.7307 4.20782 7.7072 4.21607 7.69161 4.22159C7.6721 4.22849 7.66706 4.23034 7.65822 4.23339L8.31126 6.12377C8.32163 6.12019 8.3312 6.11681 8.3389 6.11408C8.34273 6.11272 8.34657 6.11136 8.34973 6.11024C8.35308 6.10905 8.3559 6.10805 8.35859 6.10709C8.364 6.10518 8.36761 6.10392 8.37037 6.10297C8.37306 6.10205 8.37416 6.10169 8.37415 6.10169L7.75714 4.19925ZM7.65173 4.23565C7.57745 4.26189 7.48906 4.29433 7.39568 4.3343L8.18268 6.17295C8.21836 6.15768 8.26051 6.14172 8.31774 6.12151L7.65173 4.23565ZM7.39407 4.33499C7.36722 4.34654 7.34406 4.35734 7.32896 4.36446C7.30501 4.37575 7.31098 4.37305 7.29829 4.37898L8.14514 6.19085C8.15382 6.18679 8.16185 6.18297 8.16769 6.1802C8.17433 6.17705 8.17793 6.17533 8.18175 6.17353C8.18908 6.17008 8.18841 6.17049 8.18429 6.17226L7.39407 4.33499ZM7.30517 4.3758C7.22843 4.41096 7.13766 4.45412 7.04272 4.50603L8.00226 6.26082C8.03786 6.24135 8.08055 6.22047 8.13825 6.19403L7.30517 4.3758ZM7.03685 4.50927C7.01314 4.52244 6.99304 4.53444 6.98142 4.54142C6.96457 4.55154 6.96657 4.55041 6.96128 4.55354L7.97956 6.27491C7.98756 6.27018 7.99473 6.26587 7.99979 6.26281C8.00616 6.25897 8.00783 6.25796 8.0113 6.25587C8.01698 6.25246 8.01424 6.25419 8.00813 6.25758L7.03685 4.50927ZM6.97329 4.54655C6.89488 4.59147 6.80101 4.64714 6.70348 4.71372L7.8311 6.36553C7.86605 6.34167 7.90858 6.31569 7.96756 6.2819L6.97329 4.54655ZM6.70395 4.7134C6.69001 4.72291 6.6783 4.73131 6.6698 4.73751C6.66157 4.74352 6.65456 4.74877 6.65139 4.75115C6.64674 4.75464 6.64766 4.75395 6.64796 4.75373C6.64906 4.75292 6.65337 4.74973 6.65956 4.74537L7.81146 6.38033C7.82303 6.37218 7.83266 6.36511 7.83904 6.36038C7.84228 6.35798 7.8451 6.35587 7.84709 6.35438C7.84809 6.35363 7.84902 6.35293 7.84971 6.35241C7.85049 6.35182 7.85093 6.3515 7.8514 6.35114C7.85349 6.34958 7.85174 6.3509 7.84879 6.35306C7.84558 6.3554 7.83919 6.36001 7.83062 6.36585L6.70395 4.7134ZM6.66224 4.74349C6.57547 4.80419 6.48093 4.87399 6.3848 4.95422L7.66626 6.48975C7.70604 6.45655 7.7523 6.42173 7.80878 6.38221L6.66224 4.74349ZM6.38378 4.95507C6.30266 5.02295 6.20818 5.10507 6.1126 5.20066L7.52681 6.61487C7.56323 6.57845 7.6076 6.53884 7.66729 6.48889L6.38378 4.95507ZM6.13036 5.18333C2.7378 8.41155 2.95687 15.1988 9.90808 22.098L11.317 20.6785C4.65744 14.0687 5.37078 8.66689 7.50905 6.6322L6.13036 5.18333ZM9.90278 22.0927C16.802 29.0439 23.5893 29.2631 26.8173 25.8704L25.3683 24.4918C23.3339 26.63 17.9321 27.3434 11.3223 20.6838L9.90278 22.0927ZM26.7999 25.8882C26.8952 25.793 26.9772 25.699 27.0468 25.6155L25.5108 24.3346C25.4626 24.3924 25.4229 24.4368 25.3857 24.474L26.7999 25.8882ZM25.2788 24.975C25.2788 24.975 25.2788 24.975 25.2788 24.975V24.975C25.2788 24.975 25.2788 24.975 25.2788 24.975C25.2788 24.975 25.2788 24.975 25.2788 24.975C25.2788 24.975 25.2788 24.975 25.2788 24.975C25.2788 24.9751 25.2788 24.9751 25.2788 24.9751V24.9751C25.2788 24.9751 25.2788 24.9751 25.2788 24.9751C25.2788 24.9751 25.2788 24.9751 25.2788 24.9751V24.9751C25.2788 24.9751 25.2788 24.9751 25.2788 24.9751V24.9751C25.2788 24.9751 25.2788 24.9751 25.2788 24.9751C25.2788 24.9751 25.2788 24.9751 25.2788 24.9751C25.2788 24.9751 25.2788 24.9751 25.2788 24.9751C25.2788 24.9751 25.2788 24.9751 25.2788 24.9751V24.9751C25.2788 24.9751 25.2788 24.9751 25.2788 24.9751V24.9751C25.2788 24.9751 25.2788 24.9751 25.2788 24.9751V24.9751C25.2788 24.9751 25.2788 24.9751 25.2788 24.9751V24.9751C25.2788 24.9751 25.2788 24.9751 25.2788 24.9751V24.9751C25.2788 24.9751 25.2788 24.9751 25.2788 24.9751C25.2788 24.9751 25.2788 24.9751 25.2788 24.9751C25.2788 24.9751 25.2788 24.9751 25.2788 24.9751C25.2788 24.9751 25.2788 24.9751 25.2788 24.9751V24.9751C25.2788 24.9751 25.2788 24.9751 25.2788 24.9751V24.9751C25.2788 24.9751 25.2788 24.9751 25.2788 24.9751C25.2788 24.9751 25.2788 24.9751 25.2788 24.9751V24.9751C25.2788 24.9751 25.2788 24.9751 25.2788 24.9751C25.2788 24.9751 25.2788 24.9751 25.2788 24.9751V24.9751C25.2788 24.9751 25.2788 24.9751 25.2788 24.9751C25.2788 24.9751 25.2788 24.9751 25.2788 24.9751C25.2788 24.9751 25.2788 24.9751 25.2788 24.9751V24.9751C25.2788 24.9751 25.2788 24.9751 25.2788 24.9751C25.2788 24.9751 25.2788 24.9751 25.2788 24.9751C25.2788 24.9751 25.2788 24.9751 25.2788 24.9751C25.2788 24.9751 25.2788 24.9751 25.2788 24.9751V24.9751V24.9751C25.2788 24.9751 25.2788 24.9751 25.2788 24.9751C25.2788 24.9751 25.2788 24.9751 25.2788 24.9751C25.2788 24.9751 25.2788 24.9751 25.2788 24.9751C25.2788 24.9751 25.2788 24.9751 25.2788 24.9751C25.2788 24.9751 25.2788 24.9751 25.2788 24.9751C25.2788 24.9751 25.2788 24.9751 25.2788 24.9751C25.2788 24.9751 25.2788 24.9751 25.2788 24.9751C25.2788 24.9751 25.2788 24.9751 25.2788 24.9751C25.2788 24.9751 25.2788 24.9751 25.2788 24.9751C25.2788 24.9752 25.2788 24.9752 25.2788 24.9752C25.2788 24.9752 25.2788 24.9752 25.2788 24.9752V24.9752V24.9752C25.2788 24.9752 25.2788 24.9752 25.2788 24.9752C25.2788 24.9752 25.2788 24.9752 25.2788 24.9752C25.2788 24.9752 25.2788 24.9752 25.2788 24.9752V24.9752C25.2788 24.9752 25.2788 24.9752 25.2788 24.9752C25.2788 24.9752 25.2788 24.9752 25.2788 24.9752V24.9752C25.2788 24.9752 25.2788 24.9752 25.2788 24.9752V24.9752C25.2788 24.9752 25.2788 24.9752 25.2788 24.9752C25.2788 24.9752 25.2788 24.9752 25.2788 24.9752V24.9752C25.2788 24.9752 25.2788 24.9752 25.2788 24.9752C25.2788 24.9752 25.2788 24.9752 25.2788 24.9752V24.9752V24.9752V24.9752V24.9752C25.2788 24.9752 25.2788 24.9752 25.2788 24.9752C25.2788 24.9752 25.2788 24.9752 25.2788 24.9752C25.2788 24.9752 25.2788 24.9752 25.2788 24.9752V24.9752C25.2788 24.9752 25.2788 24.9752 25.2788 24.9752C25.2788 24.9752 25.2788 24.9752 25.2788 24.9752C25.2788 24.9752 25.2788 24.9752 25.2788 24.9752C25.2788 24.9752 25.2788 24.9752 25.2788 24.9752C25.2788 24.9752 25.2788 24.9752 25.2788 24.9752V24.9752V24.9752V24.9752C25.2788 24.9752 25.2788 24.9752 25.2788 24.9752V24.9752V24.9752C25.2788 24.9752 25.2788 24.9752 25.2788 24.9752C25.2788 24.9752 25.2788 24.9752 25.2788 24.9752C25.2788 24.9752 25.2788 24.9752 26.2788 24.9752C27.2788 24.9752 27.2788 24.9752 27.2788 24.9752C27.2788 24.9752 27.2788 24.9752 27.2788 24.9752C27.2788 24.9752 27.2788 24.9752 27.2788 24.9752V24.9752V24.9752C27.2788 24.9752 27.2788 24.9752 27.2788 24.9752V24.9752V24.9752V24.9752C27.2788 24.9752 27.2788 24.9752 27.2788 24.9752C27.2788 24.9752 27.2788 24.9752 27.2788 24.9752C27.2788 24.9752 27.2788 24.9752 27.2788 24.9752C27.2788 24.9752 27.2788 24.9752 27.2788 24.9752C27.2788 24.9752 27.2788 24.9752 27.2788 24.9752V24.9752C27.2788 24.9752 27.2788 24.9752 27.2788 24.9752C27.2788 24.9752 27.2788 24.9752 27.2788 24.9752C27.2788 24.9752 27.2788 24.9752 27.2788 24.9752V24.9752V24.9752V24.9752V24.9752C27.2788 24.9752 27.2788 24.9752 27.2788 24.9752C27.2788 24.9752 27.2788 24.9752 27.2788 24.9752V24.9752C27.2788 24.9752 27.2788 24.9752 27.2788 24.9752C27.2788 24.9752 27.2788 24.9752 27.2788 24.9752V24.9752C27.2788 24.9752 27.2788 24.9752 27.2788 24.9752V24.9752C27.2788 24.9752 27.2788 24.9752 27.2788 24.9752C27.2788 24.9752 27.2788 24.9752 27.2788 24.9752V24.9752C27.2788 24.9752 27.2788 24.9752 27.2788 24.9752C27.2788 24.9752 27.2788 24.9752 27.2788 24.9752C27.2788 24.9752 27.2788 24.9752 27.2788 24.9752V24.9752V24.9752C27.2788 24.9752 27.2788 24.9752 27.2788 24.9752C27.2788 24.9752 27.2788 24.9752 27.2788 24.9751C27.2788 24.9751 27.2788 24.9751 27.2788 24.9751C27.2788 24.9751 27.2788 24.9751 27.2788 24.9751C27.2788 24.9751 27.2788 24.9751 27.2788 24.9751C27.2788 24.9751 27.2788 24.9751 27.2788 24.9751C27.2788 24.9751 27.2788 24.9751 27.2788 24.9751C27.2788 24.9751 27.2788 24.9751 27.2788 24.9751C27.2788 24.9751 27.2788 24.9751 27.2788 24.9751C27.2788 24.9751 27.2788 24.9751 27.2788 24.9751C27.2788 24.9751 27.2788 24.9751 27.2788 24.9751V24.9751V24.9751C27.2788 24.9751 27.2788 24.9751 27.2788 24.9751C27.2788 24.9751 27.2788 24.9751 27.2788 24.9751C27.2788 24.9751 27.2788 24.9751 27.2788 24.9751C27.2788 24.9751 27.2788 24.9751 27.2788 24.9751V24.9751C27.2788 24.9751 27.2788 24.9751 27.2788 24.9751C27.2788 24.9751 27.2788 24.9751 27.2788 24.9751C27.2788 24.9751 27.2788 24.9751 27.2788 24.9751V24.9751C27.2788 24.9751 27.2788 24.9751 27.2788 24.9751C27.2788 24.9751 27.2788 24.9751 27.2788 24.9751V24.9751C27.2788 24.9751 27.2788 24.9751 27.2788 24.9751C27.2788 24.9751 27.2788 24.9751 27.2788 24.9751V24.9751C27.2788 24.9751 27.2788 24.9751 27.2788 24.9751V24.9751C27.2788 24.9751 27.2788 24.9751 27.2788 24.9751C27.2788 24.9751 27.2788 24.9751 27.2788 24.9751C27.2788 24.9751 27.2788 24.9751 27.2788 24.9751C27.2788 24.9751 27.2788 24.9751 27.2788 24.9751V24.9751C27.2788 24.9751 27.2788 24.9751 27.2788 24.9751V24.9751C27.2788 24.9751 27.2788 24.9751 27.2788 24.9751V24.9751C27.2788 24.9751 27.2788 24.9751 27.2788 24.9751V24.9751C27.2788 24.9751 27.2788 24.9751 27.2788 24.9751V24.9751C27.2788 24.9751 27.2788 24.9751 27.2788 24.9751C27.2788 24.9751 27.2788 24.9751 27.2788 24.9751C27.2788 24.9751 27.2788 24.9751 27.2788 24.9751C27.2788 24.9751 27.2788 24.9751 27.2788 24.9751V24.9751C27.2788 24.9751 27.2788 24.9751 27.2788 24.9751V24.9751C27.2788 24.9751 27.2788 24.9751 27.2788 24.9751C27.2788 24.9751 27.2788 24.9751 27.2788 24.9751V24.9751C27.2788 24.9751 27.2788 24.9751 27.2788 24.975C27.2788 24.975 27.2788 24.975 27.2788 24.975C27.2788 24.975 27.2788 24.975 27.2788 24.975C27.2788 24.975 27.2788 24.975 27.2788 24.975V24.975C27.2788 24.975 27.2788 24.975 27.2788 24.975H25.2788C25.2788 24.975 25.2788 24.975 25.2788 24.975V24.975C25.2788 24.975 25.2788 24.975 25.2788 24.975C25.2788 24.975 25.2788 24.975 25.2788 24.975C25.2788 24.975 25.2788 24.975 25.2788 24.975C25.2788 24.9751 25.2788 24.9751 25.2788 24.9751V24.9751C25.2788 24.9751 25.2788 24.9751 25.2788 24.9751C25.2788 24.9751 25.2788 24.9751 25.2788 24.9751V24.9751C25.2788 24.9751 25.2788 24.9751 25.2788 24.9751V24.9751C25.2788 24.9751 25.2788 24.9751 25.2788 24.9751C25.2788 24.9751 25.2788 24.9751 25.2788 24.9751C25.2788 24.9751 25.2788 24.9751 25.2788 24.9751C25.2788 24.9751 25.2788 24.9751 25.2788 24.9751V24.9751C25.2788 24.9751 25.2788 24.9751 25.2788 24.9751V24.9751C25.2788 24.9751 25.2788 24.9751 25.2788 24.9751V24.9751C25.2788 24.9751 25.2788 24.9751 25.2788 24.9751V24.9751C25.2788 24.9751 25.2788 24.9751 25.2788 24.9751V24.9751C25.2788 24.9751 25.2788 24.9751 25.2788 24.9751C25.2788 24.9751 25.2788 24.9751 25.2788 24.9751C25.2788 24.9751 25.2788 24.9751 25.2788 24.9751C25.2788 24.9751 25.2788 24.9751 25.2788 24.9751V24.9751C25.2788 24.9751 25.2788 24.9751 25.2788 24.9751V24.9751C25.2788 24.9751 25.2788 24.9751 25.2788 24.9751C25.2788 24.9751 25.2788 24.9751 25.2788 24.9751V24.9751C25.2788 24.9751 25.2788 24.9751 25.2788 24.9751C25.2788 24.9751 25.2788 24.9751 25.2788 24.9751V24.9751C25.2788 24.9751 25.2788 24.9751 25.2788 24.9751C25.2788 24.9751 25.2788 24.9751 25.2788 24.9751C25.2788 24.9751 25.2788 24.9751 25.2788 24.9751V24.9751C25.2788 24.9751 25.2788 24.9751 25.2788 24.9751C25.2788 24.9751 25.2788 24.9751 25.2788 24.9751C25.2788 24.9751 25.2788 24.9751 25.2788 24.9751C25.2788 24.9751 25.2788 24.9751 25.2788 24.9751V24.9751V24.9751C25.2788 24.9751 25.2788 24.9751 25.2788 24.9751C25.2788 24.9751 25.2788 24.9751 25.2788 24.9751C25.2788 24.9751 25.2788 24.9751 25.2788 24.9751C25.2788 24.9751 25.2788 24.9751 25.2788 24.9751C25.2788 24.9751 25.2788 24.9751 25.2788 24.9751C25.2788 24.9751 25.2788 24.9751 25.2788 24.9751C25.2788 24.9751 25.2788 24.9751 25.2788 24.9751C25.2788 24.9751 25.2788 24.9751 25.2788 24.9751C25.2788 24.9751 25.2788 24.9751 25.2788 24.9751C25.2788 24.9752 25.2788 24.9752 25.2788 24.9752C25.2788 24.9752 25.2788 24.9752 25.2788 24.9752V24.9752V24.9752C25.2788 24.9752 25.2788 24.9752 25.2788 24.9752C25.2788 24.9752 25.2788 24.9752 25.2788 24.9752C25.2788 24.9752 25.2788 24.9752 25.2788 24.9752V24.9752C25.2788 24.9752 25.2788 24.9752 25.2788 24.9752C25.2788 24.9752 25.2788 24.9752 25.2788 24.9752V24.9752C25.2788 24.9752 25.2788 24.9752 25.2788 24.9752V24.9752C25.2788 24.9752 25.2788 24.9752 25.2788 24.9752C25.2788 24.9752 25.2788 24.9752 25.2788 24.9752V24.9752C25.2788 24.9752 25.2788 24.9752 25.2788 24.9752C25.2788 24.9752 25.2788 24.9752 25.2788 24.9752V24.9752V24.9752V24.9752V24.9752C25.2788 24.9752 25.2788 24.9752 25.2788 24.9752C25.2788 24.9752 25.2788 24.9752 25.2788 24.9752C25.2788 24.9752 25.2788 24.9752 25.2788 24.9752V24.9752C25.2788 24.9752 25.2788 24.9752 25.2788 24.9752C25.2788 24.9752 25.2788 24.9752 25.2788 24.9752C25.2788 24.9752 25.2788 24.9752 25.2788 24.9752C25.2788 24.9752 25.2788 24.9752 25.2788 24.9752C25.2788 24.9752 25.2788 24.9752 25.2788 24.9752V24.9752V24.9752V24.9752C25.2788 24.9752 25.2788 24.9752 25.2788 24.9752V24.9752V24.9752C25.2788 24.9752 25.2788 24.9752 25.2788 24.9752C25.2788 24.9752 25.2788 24.9752 25.2788 24.9752C25.2788 24.9752 25.2788 24.9752 26.2788 24.9752C27.2788 24.9752 27.2788 24.9752 27.2788 24.9752C27.2788 24.9752 27.2788 24.9752 27.2788 24.9752C27.2788 24.9752 27.2788 24.9752 27.2788 24.9752V24.9752V24.9752C27.2788 24.9752 27.2788 24.9752 27.2788 24.9752V24.9752V24.9752V24.9752C27.2788 24.9752 27.2788 24.9752 27.2788 24.9752C27.2788 24.9752 27.2788 24.9752 27.2788 24.9752C27.2788 24.9752 27.2788 24.9752 27.2788 24.9752C27.2788 24.9752 27.2788 24.9752 27.2788 24.9752C27.2788 24.9752 27.2788 24.9752 27.2788 24.9752V24.9752C27.2788 24.9752 27.2788 24.9752 27.2788 24.9752C27.2788 24.9752 27.2788 24.9752 27.2788 24.9752C27.2788 24.9752 27.2788 24.9752 27.2788 24.9752V24.9752V24.9752V24.9752V24.9752C27.2788 24.9752 27.2788 24.9752 27.2788 24.9752C27.2788 24.9752 27.2788 24.9752 27.2788 24.9752V24.9752C27.2788 24.9752 27.2788 24.9752 27.2788 24.9752C27.2788 24.9752 27.2788 24.9752 27.2788 24.9752V24.9752C27.2788 24.9752 27.2788 24.9752 27.2788 24.9752V24.9752C27.2788 24.9752 27.2788 24.9752 27.2788 24.9752C27.2788 24.9752 27.2788 24.9752 27.2788 24.9752V24.9752C27.2788 24.9752 27.2788 24.9752 27.2788 24.9752C27.2788 24.9752 27.2788 24.9752 27.2788 24.9752C27.2788 24.9752 27.2788 24.9752 27.2788 24.9752V24.9752V24.9752C27.2788 24.9752 27.2788 24.9752 27.2788 24.9752C27.2788 24.9752 27.2788 24.9752 27.2788 24.9751C27.2788 24.9751 27.2788 24.9751 27.2788 24.9751C27.2788 24.9751 27.2788 24.9751 27.2788 24.9751C27.2788 24.9751 27.2788 24.9751 27.2788 24.9751C27.2788 24.9751 27.2788 24.9751 27.2788 24.9751C27.2788 24.9751 27.2788 24.9751 27.2788 24.9751C27.2788 24.9751 27.2788 24.9751 27.2788 24.9751C27.2788 24.9751 27.2788 24.9751 27.2788 24.9751C27.2788 24.9751 27.2788 24.9751 27.2788 24.9751C27.2788 24.9751 27.2788 24.9751 27.2788 24.9751V24.9751V24.9751C27.2788 24.9751 27.2788 24.9751 27.2788 24.9751C27.2788 24.9751 27.2788 24.9751 27.2788 24.9751C27.2788 24.9751 27.2788 24.9751 27.2788 24.9751C27.2788 24.9751 27.2788 24.9751 27.2788 24.9751V24.9751C27.2788 24.9751 27.2788 24.9751 27.2788 24.9751C27.2788 24.9751 27.2788 24.9751 27.2788 24.9751C27.2788 24.9751 27.2788 24.9751 27.2788 24.9751V24.9751C27.2788 24.9751 27.2788 24.9751 27.2788 24.9751C27.2788 24.9751 27.2788 24.9751 27.2788 24.9751V24.9751C27.2788 24.9751 27.2788 24.9751 27.2788 24.9751C27.2788 24.9751 27.2788 24.9751 27.2788 24.9751V24.9751C27.2788 24.9751 27.2788 24.9751 27.2788 24.9751V24.9751C27.2788 24.9751 27.2788 24.9751 27.2788 24.9751C27.2788 24.9751 27.2788 24.9751 27.2788 24.9751C27.2788 24.9751 27.2788 24.9751 27.2788 24.9751C27.2788 24.9751 27.2788 24.9751 27.2788 24.9751V24.9751C27.2788 24.9751 27.2788 24.9751 27.2788 24.9751V24.9751C27.2788 24.9751 27.2788 24.9751 27.2788 24.9751V24.9751C27.2788 24.9751 27.2788 24.9751 27.2788 24.9751V24.9751C27.2788 24.9751 27.2788 24.9751 27.2788 24.9751V24.9751C27.2788 24.9751 27.2788 24.9751 27.2788 24.9751C27.2788 24.9751 27.2788 24.9751 27.2788 24.9751C27.2788 24.9751 27.2788 24.9751 27.2788 24.9751C27.2788 24.9751 27.2788 24.9751 27.2788 24.9751V24.9751C27.2788 24.9751 27.2788 24.9751 27.2788 24.9751V24.9751C27.2788 24.9751 27.2788 24.9751 27.2788 24.9751C27.2788 24.9751 27.2788 24.9751 27.2788 24.9751V24.9751C27.2788 24.9751 27.2788 24.9751 27.2788 24.975C27.2788 24.975 27.2788 24.975 27.2788 24.975C27.2788 24.975 27.2788 24.975 27.2788 24.975C27.2788 24.975 27.2788 24.975 27.2788 24.975V24.975C27.2788 24.975 27.2788 24.975 27.2788 24.975H25.2788Z" fill="white" mask="url(#path-1-inside-1)"/>
<mask id="path-3-inside-2" fill="white">
<path d="M9.03411 5.06111C9.05709 5.06111 9.08007 5.06136 9.10305 5.06184C9.14362 5.06282 9.18396 5.06502 9.22429 5.06771C9.27783 5.07113 9.33087 5.07529 9.38416 5.0814C9.42694 5.08629 9.46972 5.09313 9.51225 5.09973C9.56285 5.1078 9.61345 5.11611 9.66356 5.12662C9.70512 5.13542 9.74594 5.14593 9.79752 5.15913L9.81096 5.16256C9.85398 5.17356 9.89701 5.18456 9.93954 5.19776C9.98012 5.21022 10.0202 5.22489 10.0603 5.23956L10.0784 5.24616L10.1065 5.25667C10.141 5.26914 10.1754 5.28136 10.2094 5.29554C10.2505 5.31265 10.2903 5.33196 10.3307 5.35127L10.3527 5.36178L10.3879 5.3784C10.416 5.3916 10.4441 5.4048 10.4717 5.41947C10.5137 5.44196 10.5548 5.46714 10.5956 5.49207L10.6191 5.50625L10.657 5.52874C10.6795 5.54194 10.702 5.55514 10.7237 5.5698C10.7733 5.6028 10.821 5.63947 10.8689 5.67589L10.8819 5.68592L10.9168 5.71158C10.9327 5.72307 10.9486 5.73432 10.9638 5.74678C11.0437 5.81229 11.1195 5.88074 11.1891 5.95041L13.1836 7.94484C13.2533 8.01451 13.3217 8.09029 13.3872 8.17022C13.3999 8.18562 13.4114 8.20175 13.4229 8.21764L13.4486 8.25235L13.4596 8.26678C13.4955 8.31396 13.5317 8.36113 13.5642 8.41002C13.5789 8.43227 13.5923 8.455 13.6057 8.47773L13.628 8.51513L13.6427 8.53909C13.6676 8.57967 13.6923 8.62025 13.7148 8.66229C13.7297 8.69016 13.7429 8.71827 13.7561 8.74662L13.7727 8.78158L13.7835 8.80382C13.8025 8.84367 13.8218 8.88351 13.8387 8.92434C13.8526 8.95783 13.8649 8.9918 13.8771 9.02578L13.8876 9.05512L13.8942 9.07345C13.9089 9.11378 13.9235 9.15387 13.9362 9.19469C13.9492 9.23625 13.9599 9.27829 13.9707 9.3201L13.9768 9.34381C13.9878 9.38585 13.9986 9.42814 14.0076 9.47067C14.0181 9.52054 14.0262 9.57065 14.0343 9.62101C14.0411 9.66403 14.0477 9.70705 14.0528 9.75032C14.0589 9.80336 14.0631 9.85641 14.0665 9.9097C14.0692 9.95028 14.0714 9.99061 14.0724 10.0312C14.0739 10.0872 14.0734 10.1427 14.0717 10.1986C14.0704 10.2365 14.0687 10.2742 14.0663 10.3121C14.0624 10.3702 14.057 10.4284 14.0499 10.4863C14.0455 10.5211 14.0404 10.5555 14.035 10.59C14.0255 10.6506 14.0145 10.7107 14.0015 10.7706C13.9951 10.7995 13.9878 10.8281 13.979 10.8633C13.9634 10.9259 13.9463 10.988 13.9265 11.0493C13.9201 11.0686 13.9133 11.0879 13.9064 11.1072L13.8983 11.1297C13.8759 11.1938 13.8521 11.2576 13.8253 11.3204C13.8194 11.3343 13.8128 11.348 13.8062 11.3617L13.794 11.3876C13.7639 11.4531 13.7329 11.5182 13.6979 11.582C13.6925 11.5915 13.6869 11.601 13.681 11.6106L13.6671 11.6343C13.6202 11.7159 13.5825 11.777 13.5446 11.8325L13.5336 11.8477L13.5212 11.8645C13.4645 11.9454 13.4151 12.0105 13.3657 12.0696C13.2975 12.1513 13.2396 12.2156 13.1836 12.2715L11.8342 13.6209C11.638 13.8172 11.638 14.1369 11.8342 14.3332L17.667 20.1657C17.7621 20.2608 17.8887 20.3133 18.0231 20.3133C18.1576 20.3133 18.2842 20.261 18.3793 20.1657L19.7286 18.8163C19.7853 18.7596 19.8474 18.7034 19.9305 18.634C19.9897 18.5844 20.0552 18.535 20.1364 18.478L20.1527 18.466L20.1674 18.4553C20.2234 18.4172 20.2847 18.3793 20.3666 18.3321L20.3894 18.3186C20.3987 18.313 20.4082 18.3074 20.4177 18.302C20.4818 18.2668 20.547 18.2355 20.613 18.2055L20.6385 18.1935C20.6519 18.1871 20.6656 18.1808 20.6793 18.1747C20.7423 18.1475 20.8064 18.1238 20.8709 18.1011L20.8939 18.093C20.9127 18.0864 20.9313 18.0796 20.9504 18.0735C21.0122 18.0537 21.0745 18.0366 21.1445 18.019C21.1726 18.0119 21.2007 18.0048 21.229 17.9984C21.2894 17.9852 21.3498 17.9742 21.4107 17.9647C21.4449 17.9593 21.4789 17.9542 21.5131 17.95C21.5715 17.9429 21.6297 17.9373 21.6883 17.9336C21.7257 17.9312 21.7632 17.9295 21.8008 17.9283C21.8338 17.9273 21.8668 17.9268 21.9 17.9268C21.923 17.9268 21.9458 17.927 21.9687 17.9275C22.0093 17.9285 22.0496 17.9307 22.09 17.9334C22.1435 17.9368 22.1966 17.941 22.2498 17.9471C22.2926 17.952 22.3354 17.9588 22.3779 17.9654C22.4285 17.9735 22.4791 17.9818 22.5292 17.9923C22.5708 18.0011 22.6116 18.0116 22.6632 18.0248L22.6766 18.0282C22.7197 18.0392 22.7627 18.0502 22.8052 18.0634C22.8458 18.0762 22.8859 18.0906 22.9262 18.1052L22.9443 18.1118L22.9724 18.1221C23.0069 18.1346 23.0414 18.1468 23.0753 18.161C23.1164 18.1781 23.1565 18.1974 23.1966 18.2167L23.2186 18.2272L23.2538 18.2438C23.2819 18.257 23.31 18.2702 23.3376 18.2849C23.3797 18.3074 23.4207 18.3326 23.4616 18.3575L23.485 18.3717L23.5229 18.3942C23.5454 18.4074 23.5679 18.4206 23.5896 18.4352C23.6393 18.4682 23.6869 18.5049 23.7349 18.5413L23.7478 18.5514L23.7828 18.577C23.7987 18.5885 23.8145 18.5998 23.8297 18.6125C23.9096 18.678 23.9854 18.7464 24.0551 18.8161L26.0495 20.8105C26.1192 20.8802 26.1876 20.956 26.2531 21.0359C26.2658 21.0513 26.2773 21.0674 26.2888 21.0833L26.3145 21.118L26.3255 21.1325C26.3614 21.1796 26.3976 21.2268 26.4301 21.2757C26.4448 21.298 26.4582 21.3207 26.4717 21.3434L26.4939 21.3808L26.5086 21.4048C26.5335 21.4454 26.5582 21.4862 26.5807 21.528C26.5956 21.5558 26.6088 21.584 26.622 21.6123L26.6386 21.6473L26.6494 21.6698C26.6684 21.7096 26.6878 21.7494 26.7046 21.79C26.7186 21.8235 26.7308 21.8575 26.743 21.8915L26.7535 21.9206L26.7601 21.9386C26.7748 21.979 26.7894 22.0193 26.8022 22.0601C26.8151 22.1017 26.8259 22.1437 26.8366 22.1855L26.8427 22.2092C26.8537 22.2513 26.8645 22.2936 26.8735 22.3361C26.8841 22.386 26.8921 22.4361 26.9002 22.4864C26.907 22.5295 26.9136 22.5725 26.9188 22.6158C26.9249 22.6688 26.929 22.7218 26.9324 22.7751C26.9351 22.8157 26.9373 22.856 26.9383 22.8966C26.9398 22.9526 26.9393 23.0081 26.9376 23.0641C26.9364 23.102 26.9347 23.1396 26.9322 23.1775C26.9283 23.2357 26.9229 23.2939 26.9158 23.3518C26.9114 23.3865 26.9063 23.421 26.9009 23.4554C26.8914 23.5161 26.8804 23.5762 26.8674 23.6361C26.8611 23.6652 26.8537 23.6938 26.8449 23.7287C26.8293 23.7913 26.8122 23.8534 26.7924 23.9147C26.7863 23.9341 26.7792 23.9534 26.7723 23.9724L26.7643 23.9952C26.7418 24.0592 26.7181 24.123 26.6912 24.1858C26.6851 24.1998 26.6787 24.2135 26.6721 24.2271L26.6601 24.2531C26.6301 24.3186 26.599 24.3836 26.5641 24.4474C26.5587 24.4572 26.5531 24.4665 26.5472 24.476L26.5333 24.4995C26.4863 24.5811 26.4487 24.6422 26.4108 24.6977L26.3998 24.7129L26.3873 24.7297C26.3306 24.8106 26.2812 24.8759 26.2319 24.9348C26.1634 25.0165 26.1057 25.0808 26.0485 25.1377C24.9436 26.2988 23.2958 26.9385 21.4087 26.9385C18.0551 26.9385 14.2364 24.9517 10.6553 21.3439C7.01254 17.7285 5.02593 13.8783 5.06162 10.5027C5.08118 8.65398 5.7204 7.0377 6.86294 5.95065C6.91965 5.89394 6.98174 5.83796 7.06486 5.76829C7.12401 5.71867 7.18952 5.66929 7.27068 5.61234L7.28706 5.60036L7.30172 5.5896C7.3577 5.55147 7.41906 5.51358 7.50095 5.4664L7.52368 5.45296C7.53297 5.44734 7.5425 5.44171 7.55204 5.43634C7.61608 5.40138 7.68135 5.36985 7.74735 5.33978L7.77277 5.3278C7.78622 5.32145 7.79991 5.31509 7.81359 5.30898C7.87666 5.28185 7.94071 5.25814 8.00524 5.2354L8.02822 5.22733C8.04704 5.22073 8.06562 5.21389 8.08468 5.20778C8.14653 5.18798 8.20886 5.17087 8.27853 5.15327C8.30689 5.14618 8.335 5.13885 8.36335 5.13273C8.42373 5.11953 8.48411 5.10853 8.54498 5.099C8.5792 5.09362 8.61318 5.08849 8.6474 5.08433C8.70582 5.07724 8.764 5.07162 8.82267 5.06796C8.86007 5.06551 8.89747 5.0638 8.93511 5.06258C8.96811 5.0616 9.00111 5.06111 9.03411 5.06111ZM9.03411 5C9.00038 5 8.96689 5.00049 8.93316 5.00147C8.89478 5.00269 8.85665 5.0044 8.81851 5.00684C8.75887 5.01076 8.69922 5.01638 8.63982 5.02371C8.60487 5.02811 8.57015 5.03324 8.5352 5.03862C8.47311 5.0484 8.41151 5.05964 8.34991 5.07309C8.31862 5.07993 8.28757 5.088 8.25653 5.09582C8.19249 5.1122 8.12893 5.12956 8.06562 5.14985C8.03848 5.15865 8.0116 5.16867 7.98471 5.17796C7.91895 5.20118 7.85368 5.22538 7.78915 5.253C7.76642 5.26278 7.74417 5.27378 7.72168 5.28429C7.65446 5.31509 7.58773 5.34711 7.52246 5.3828C7.50486 5.39258 7.48775 5.40334 7.47039 5.4136C7.4017 5.45296 7.3335 5.49378 7.26726 5.539C7.2565 5.54634 7.24623 5.55465 7.23548 5.56223C7.16386 5.61234 7.09346 5.66465 7.0255 5.72136C6.9551 5.78027 6.88568 5.84114 6.81968 5.90714C4.05426 8.5386 3.80712 14.6331 10.6125 21.3877C14.6451 25.4508 18.4431 27.0001 21.4089 27.0001C23.4105 27.0001 25.0326 26.2947 26.093 25.1805C26.159 25.1145 26.2201 25.0451 26.279 24.9747C26.3358 24.907 26.3876 24.8368 26.4377 24.7657C26.4455 24.7547 26.4541 24.7442 26.4616 24.7329C26.5066 24.6669 26.5472 24.5992 26.5866 24.5308C26.5968 24.5129 26.6081 24.4956 26.6178 24.4775C26.6535 24.4124 26.6853 24.3462 26.7159 24.2792C26.7264 24.2562 26.7376 24.2337 26.7477 24.2108C26.7753 24.1467 26.7992 24.0817 26.8222 24.0162C26.8317 23.9888 26.842 23.9617 26.8508 23.9341C26.8708 23.8712 26.8882 23.8079 26.9043 23.7441C26.9124 23.7126 26.9202 23.6813 26.9273 23.6498C26.9408 23.5887 26.9518 23.5273 26.9615 23.4655C26.9672 23.4303 26.9723 23.3953 26.9767 23.3599C26.984 23.3007 26.9894 23.2415 26.9933 23.1821C26.9958 23.1435 26.9977 23.1051 26.9987 23.0665C27.0004 23.0096 27.0007 22.9529 26.9994 22.8959C26.9985 22.8546 26.9963 22.8133 26.9936 22.772C26.9901 22.7177 26.986 22.6634 26.9796 22.6094C26.9745 22.5654 26.9676 22.5216 26.9608 22.4776C26.9527 22.4263 26.9444 22.3752 26.9337 22.3244C26.9239 22.2782 26.9119 22.2325 26.9002 22.1865C26.8877 22.1384 26.8757 22.0904 26.8611 22.043C26.8462 21.9951 26.8286 21.9479 26.8114 21.9005C26.7953 21.856 26.7799 21.8113 26.7616 21.7673C26.741 21.7179 26.7173 21.67 26.6941 21.6216C26.6746 21.5808 26.6565 21.5397 26.635 21.4999C26.6078 21.4488 26.5768 21.3996 26.5467 21.3498C26.525 21.3141 26.5049 21.2774 26.4814 21.2425C26.4448 21.1875 26.404 21.1347 26.3634 21.0816C26.3421 21.0537 26.323 21.0249 26.3008 20.9978C26.236 20.9186 26.1668 20.8416 26.093 20.7677L24.0986 18.7733C24.0248 18.6995 23.9478 18.6306 23.8686 18.5655C23.8414 18.5433 23.8128 18.5245 23.7852 18.5032C23.7319 18.4626 23.6791 18.4216 23.6239 18.3849C23.5889 18.3617 23.5527 18.3419 23.517 18.3201C23.4672 18.2898 23.4178 18.2588 23.3667 18.2316C23.3269 18.2104 23.2858 18.192 23.2452 18.1727C23.1968 18.1495 23.1484 18.1258 23.099 18.1052C23.055 18.0869 23.0101 18.0715 22.9653 18.0551C22.9182 18.038 22.8715 18.0207 22.8236 18.0058C22.7756 17.9908 22.7272 17.9786 22.6788 17.9662C22.6334 17.9544 22.5879 17.9427 22.5422 17.9329C22.4909 17.9222 22.4395 17.9136 22.388 17.9055C22.3444 17.8987 22.3009 17.8918 22.2572 17.8867C22.2029 17.8804 22.1486 17.8762 22.0941 17.8728C22.0528 17.8701 22.0118 17.8679 21.9704 17.8669C21.947 17.8664 21.9235 17.8662 21.9003 17.8662C21.8666 17.8662 21.8331 17.8667 21.7993 17.8676C21.761 17.8689 21.7228 17.8706 21.6847 17.873C21.625 17.8769 21.5654 17.8826 21.506 17.8899C21.471 17.8943 21.4363 17.8994 21.4014 17.9048C21.3393 17.9146 21.2777 17.9258 21.2161 17.9393C21.1848 17.9461 21.1537 17.9542 21.1227 17.962C21.0587 17.9781 20.9951 17.9955 20.9318 18.0158C20.9047 18.0246 20.8778 18.0346 20.8509 18.0439C20.7851 18.0671 20.7199 18.0913 20.6553 18.1189C20.6326 18.1287 20.6103 18.1397 20.5879 18.1502C20.5206 18.181 20.4539 18.213 20.3886 18.2487C20.371 18.2585 20.3539 18.2693 20.3366 18.2795C20.2676 18.3191 20.1997 18.36 20.1334 18.4052C20.1227 18.4125 20.1124 18.4211 20.1017 18.4284C20.03 18.4785 19.9596 18.5306 19.8917 18.5875C19.8213 18.6464 19.7518 18.7073 19.6858 18.7733L18.3365 20.1227C18.25 20.2092 18.1368 20.2522 18.0236 20.2522C17.9104 20.2522 17.797 20.2089 17.7107 20.1227L11.878 14.2902C11.7052 14.1173 11.7052 13.837 11.878 13.6641L13.2273 12.3148C13.2933 12.2488 13.3545 12.1794 13.4131 12.109C13.4698 12.0413 13.5217 11.9711 13.5718 11.9C13.5796 11.889 13.5881 11.8785 13.5957 11.8672C13.6407 11.8012 13.6813 11.7335 13.7206 11.6651C13.7309 11.6472 13.7421 11.6299 13.7519 11.6118C13.7876 11.5468 13.8194 11.4805 13.8499 11.4135C13.8605 11.3906 13.8717 11.3681 13.8817 11.3451C13.9093 11.281 13.9333 11.216 13.9563 11.1505C13.9658 11.1231 13.9761 11.096 13.9849 11.0684C14.0049 11.0056 14.0223 10.9422 14.0384 10.8784C14.0465 10.8469 14.0543 10.8156 14.0614 10.7841C14.0748 10.723 14.0858 10.6616 14.0956 10.5998C14.1012 10.5646 14.1064 10.5296 14.1108 10.4942C14.1181 10.435 14.1235 10.3759 14.1274 10.3165C14.1298 10.2778 14.1318 10.2395 14.1328 10.2008C14.1345 10.1439 14.1347 10.0872 14.1335 10.0302C14.1325 9.9889 14.1303 9.94759 14.1276 9.90628C14.1242 9.85201 14.1201 9.79774 14.1137 9.74372C14.1086 9.69972 14.1017 9.65596 14.0949 9.61196C14.0868 9.56063 14.0785 9.50954 14.0677 9.4587C14.058 9.4125 14.046 9.36678 14.0343 9.32083C14.0218 9.27267 14.0098 9.22476 13.9951 9.17734C13.9802 9.12943 13.9626 9.08225 13.9455 9.03483C13.9294 8.99034 13.914 8.9456 13.8957 8.9016C13.8751 8.85223 13.8514 8.80431 13.8282 8.75591C13.8086 8.71509 13.7905 8.67402 13.769 8.63418C13.7419 8.58309 13.7109 8.53396 13.6808 8.48409C13.659 8.4484 13.639 8.41173 13.6155 8.37678C13.5789 8.32178 13.538 8.26898 13.4975 8.21593C13.4762 8.18807 13.4571 8.15922 13.4349 8.13209C13.3701 8.05289 13.3009 7.97589 13.2271 7.90206L11.2327 5.90763C11.1588 5.83381 11.0818 5.76487 11.0026 5.69985C10.9755 5.6776 10.9469 5.65878 10.919 5.63752C10.8657 5.59694 10.8129 5.55587 10.7577 5.5192C10.7227 5.49598 10.6866 5.47618 10.6509 5.45443C10.601 5.42411 10.5516 5.39307 10.5005 5.36594C10.4607 5.34467 10.4196 5.32634 10.3791 5.30702C10.3307 5.2838 10.2823 5.26009 10.2329 5.23956C10.1889 5.22122 10.1439 5.20582 10.0992 5.18945C10.052 5.17233 10.0053 5.15498 9.95739 5.14007C9.90947 5.12516 9.86107 5.11293 9.81267 5.10047C9.76721 5.08873 9.72174 5.077 9.67603 5.06722C9.62469 5.05647 9.57336 5.04791 9.52178 5.03984C9.47827 5.033 9.43476 5.02616 9.391 5.02102C9.33674 5.01467 9.28247 5.01051 9.22796 5.00709C9.18665 5.0044 9.14558 5.0022 9.10427 5.00122C9.08105 5.00024 9.05758 5 9.03411 5Z"/>
</mask>
<path d="M9.03411 5.06111C9.05709 5.06111 9.08007 5.06136 9.10305 5.06184C9.14362 5.06282 9.18396 5.06502 9.22429 5.06771C9.27783 5.07113 9.33087 5.07529 9.38416 5.0814C9.42694 5.08629 9.46972 5.09313 9.51225 5.09973C9.56285 5.1078 9.61345 5.11611 9.66356 5.12662C9.70512 5.13542 9.74594 5.14593 9.79752 5.15913L9.81096 5.16256C9.85398 5.17356 9.89701 5.18456 9.93954 5.19776C9.98012 5.21022 10.0202 5.22489 10.0603 5.23956L10.0784 5.24616L10.1065 5.25667C10.141 5.26914 10.1754 5.28136 10.2094 5.29554C10.2505 5.31265 10.2903 5.33196 10.3307 5.35127L10.3527 5.36178L10.3879 5.3784C10.416 5.3916 10.4441 5.4048 10.4717 5.41947C10.5137 5.44196 10.5548 5.46714 10.5956 5.49207L10.6191 5.50625L10.657 5.52874C10.6795 5.54194 10.702 5.55514 10.7237 5.5698C10.7733 5.6028 10.821 5.63947 10.8689 5.67589L10.8819 5.68592L10.9168 5.71158C10.9327 5.72307 10.9486 5.73432 10.9638 5.74678C11.0437 5.81229 11.1195 5.88074 11.1891 5.95041L13.1836 7.94484C13.2533 8.01451 13.3217 8.09029 13.3872 8.17022C13.3999 8.18562 13.4114 8.20175 13.4229 8.21764L13.4486 8.25235L13.4596 8.26678C13.4955 8.31396 13.5317 8.36113 13.5642 8.41002C13.5789 8.43227 13.5923 8.455 13.6057 8.47773L13.628 8.51513L13.6427 8.53909C13.6676 8.57967 13.6923 8.62025 13.7148 8.66229C13.7297 8.69016 13.7429 8.71827 13.7561 8.74662L13.7727 8.78158L13.7835 8.80382C13.8025 8.84367 13.8218 8.88351 13.8387 8.92434C13.8526 8.95783 13.8649 8.9918 13.8771 9.02578L13.8876 9.05512L13.8942 9.07345C13.9089 9.11378 13.9235 9.15387 13.9362 9.19469C13.9492 9.23625 13.9599 9.27829 13.9707 9.3201L13.9768 9.34381C13.9878 9.38585 13.9986 9.42814 14.0076 9.47067C14.0181 9.52054 14.0262 9.57065 14.0343 9.62101C14.0411 9.66403 14.0477 9.70705 14.0528 9.75032C14.0589 9.80336 14.0631 9.85641 14.0665 9.9097C14.0692 9.95028 14.0714 9.99061 14.0724 10.0312C14.0739 10.0872 14.0734 10.1427 14.0717 10.1986C14.0704 10.2365 14.0687 10.2742 14.0663 10.3121C14.0624 10.3702 14.057 10.4284 14.0499 10.4863C14.0455 10.5211 14.0404 10.5555 14.035 10.59C14.0255 10.6506 14.0145 10.7107 14.0015 10.7706C13.9951 10.7995 13.9878 10.8281 13.979 10.8633C13.9634 10.9259 13.9463 10.988 13.9265 11.0493C13.9201 11.0686 13.9133 11.0879 13.9064 11.1072L13.8983 11.1297C13.8759 11.1938 13.8521 11.2576 13.8253 11.3204C13.8194 11.3343 13.8128 11.348 13.8062 11.3617L13.794 11.3876C13.7639 11.4531 13.7329 11.5182 13.6979 11.582C13.6925 11.5915 13.6869 11.601 13.681 11.6106L13.6671 11.6343C13.6202 11.7159 13.5825 11.777 13.5446 11.8325L13.5336 11.8477L13.5212 11.8645C13.4645 11.9454 13.4151 12.0105 13.3657 12.0696C13.2975 12.1513 13.2396 12.2156 13.1836 12.2715L11.8342 13.6209C11.638 13.8172 11.638 14.1369 11.8342 14.3332L17.667 20.1657C17.7621 20.2608 17.8887 20.3133 18.0231 20.3133C18.1576 20.3133 18.2842 20.261 18.3793 20.1657L19.7286 18.8163C19.7853 18.7596 19.8474 18.7034 19.9305 18.634C19.9897 18.5844 20.0552 18.535 20.1364 18.478L20.1527 18.466L20.1674 18.4553C20.2234 18.4172 20.2847 18.3793 20.3666 18.3321L20.3894 18.3186C20.3987 18.313 20.4082 18.3074 20.4177 18.302C20.4818 18.2668 20.547 18.2355 20.613 18.2055L20.6385 18.1935C20.6519 18.1871 20.6656 18.1808 20.6793 18.1747C20.7423 18.1475 20.8064 18.1238 20.8709 18.1011L20.8939 18.093C20.9127 18.0864 20.9313 18.0796 20.9504 18.0735C21.0122 18.0537 21.0745 18.0366 21.1445 18.019C21.1726 18.0119 21.2007 18.0048 21.229 17.9984C21.2894 17.9852 21.3498 17.9742 21.4107 17.9647C21.4449 17.9593 21.4789 17.9542 21.5131 17.95C21.5715 17.9429 21.6297 17.9373 21.6883 17.9336C21.7257 17.9312 21.7632 17.9295 21.8008 17.9283C21.8338 17.9273 21.8668 17.9268 21.9 17.9268C21.923 17.9268 21.9458 17.927 21.9687 17.9275C22.0093 17.9285 22.0496 17.9307 22.09 17.9334C22.1435 17.9368 22.1966 17.941 22.2498 17.9471C22.2926 17.952 22.3354 17.9588 22.3779 17.9654C22.4285 17.9735 22.4791 17.9818 22.5292 17.9923C22.5708 18.0011 22.6116 18.0116 22.6632 18.0248L22.6766 18.0282C22.7197 18.0392 22.7627 18.0502 22.8052 18.0634C22.8458 18.0762 22.8859 18.0906 22.9262 18.1052L22.9443 18.1118L22.9724 18.1221C23.0069 18.1346 23.0414 18.1468 23.0753 18.161C23.1164 18.1781 23.1565 18.1974 23.1966 18.2167L23.2186 18.2272L23.2538 18.2438C23.2819 18.257 23.31 18.2702 23.3376 18.2849C23.3797 18.3074 23.4207 18.3326 23.4616 18.3575L23.485 18.3717L23.5229 18.3942C23.5454 18.4074 23.5679 18.4206 23.5896 18.4352C23.6393 18.4682 23.6869 18.5049 23.7349 18.5413L23.7478 18.5514L23.7828 18.577C23.7987 18.5885 23.8145 18.5998 23.8297 18.6125C23.9096 18.678 23.9854 18.7464 24.0551 18.8161L26.0495 20.8105C26.1192 20.8802 26.1876 20.956 26.2531 21.0359C26.2658 21.0513 26.2773 21.0674 26.2888 21.0833L26.3145 21.118L26.3255 21.1325C26.3614 21.1796 26.3976 21.2268 26.4301 21.2757C26.4448 21.298 26.4582 21.3207 26.4717 21.3434L26.4939 21.3808L26.5086 21.4048C26.5335 21.4454 26.5582 21.4862 26.5807 21.528C26.5956 21.5558 26.6088 21.584 26.622 21.6123L26.6386 21.6473L26.6494 21.6698C26.6684 21.7096 26.6878 21.7494 26.7046 21.79C26.7186 21.8235 26.7308 21.8575 26.743 21.8915L26.7535 21.9206L26.7601 21.9386C26.7748 21.979 26.7894 22.0193 26.8022 22.0601C26.8151 22.1017 26.8259 22.1437 26.8366 22.1855L26.8427 22.2092C26.8537 22.2513 26.8645 22.2936 26.8735 22.3361C26.8841 22.386 26.8921 22.4361 26.9002 22.4864C26.907 22.5295 26.9136 22.5725 26.9188 22.6158C26.9249 22.6688 26.929 22.7218 26.9324 22.7751C26.9351 22.8157 26.9373 22.856 26.9383 22.8966C26.9398 22.9526 26.9393 23.0081 26.9376 23.0641C26.9364 23.102 26.9347 23.1396 26.9322 23.1775C26.9283 23.2357 26.9229 23.2939 26.9158 23.3518C26.9114 23.3865 26.9063 23.421 26.9009 23.4554C26.8914 23.5161 26.8804 23.5762 26.8674 23.6361C26.8611 23.6652 26.8537 23.6938 26.8449 23.7287C26.8293 23.7913 26.8122 23.8534 26.7924 23.9147C26.7863 23.9341 26.7792 23.9534 26.7723 23.9724L26.7643 23.9952C26.7418 24.0592 26.7181 24.123 26.6912 24.1858C26.6851 24.1998 26.6787 24.2135 26.6721 24.2271L26.6601 24.2531C26.6301 24.3186 26.599 24.3836 26.5641 24.4474C26.5587 24.4572 26.5531 24.4665 26.5472 24.476L26.5333 24.4995C26.4863 24.5811 26.4487 24.6422 26.4108 24.6977L26.3998 24.7129L26.3873 24.7297C26.3306 24.8106 26.2812 24.8759 26.2319 24.9348C26.1634 25.0165 26.1057 25.0808 26.0485 25.1377C24.9436 26.2988 23.2958 26.9385 21.4087 26.9385C18.0551 26.9385 14.2364 24.9517 10.6553 21.3439C7.01254 17.7285 5.02593 13.8783 5.06162 10.5027C5.08118 8.65398 5.7204 7.0377 6.86294 5.95065C6.91965 5.89394 6.98174 5.83796 7.06486 5.76829C7.12401 5.71867 7.18952 5.66929 7.27068 5.61234L7.28706 5.60036L7.30172 5.5896C7.3577 5.55147 7.41906 5.51358 7.50095 5.4664L7.52368 5.45296C7.53297 5.44734 7.5425 5.44171 7.55204 5.43634C7.61608 5.40138 7.68135 5.36985 7.74735 5.33978L7.77277 5.3278C7.78622 5.32145 7.79991 5.31509 7.81359 5.30898C7.87666 5.28185 7.94071 5.25814 8.00524 5.2354L8.02822 5.22733C8.04704 5.22073 8.06562 5.21389 8.08468 5.20778C8.14653 5.18798 8.20886 5.17087 8.27853 5.15327C8.30689 5.14618 8.335 5.13885 8.36335 5.13273C8.42373 5.11953 8.48411 5.10853 8.54498 5.099C8.5792 5.09362 8.61318 5.08849 8.6474 5.08433C8.70582 5.07724 8.764 5.07162 8.82267 5.06796C8.86007 5.06551 8.89747 5.0638 8.93511 5.06258C8.96811 5.0616 9.00111 5.06111 9.03411 5.06111ZM9.03411 5C9.00038 5 8.96689 5.00049 8.93316 5.00147C8.89478 5.00269 8.85665 5.0044 8.81851 5.00684C8.75887 5.01076 8.69922 5.01638 8.63982 5.02371C8.60487 5.02811 8.57015 5.03324 8.5352 5.03862C8.47311 5.0484 8.41151 5.05964 8.34991 5.07309C8.31862 5.07993 8.28757 5.088 8.25653 5.09582C8.19249 5.1122 8.12893 5.12956 8.06562 5.14985C8.03848 5.15865 8.0116 5.16867 7.98471 5.17796C7.91895 5.20118 7.85368 5.22538 7.78915 5.253C7.76642 5.26278 7.74417 5.27378 7.72168 5.28429C7.65446 5.31509 7.58773 5.34711 7.52246 5.3828C7.50486 5.39258 7.48775 5.40334 7.47039 5.4136C7.4017 5.45296 7.3335 5.49378 7.26726 5.539C7.2565 5.54634 7.24623 5.55465 7.23548 5.56223C7.16386 5.61234 7.09346 5.66465 7.0255 5.72136C6.9551 5.78027 6.88568 5.84114 6.81968 5.90714C4.05426 8.5386 3.80712 14.6331 10.6125 21.3877C14.6451 25.4508 18.4431 27.0001 21.4089 27.0001C23.4105 27.0001 25.0326 26.2947 26.093 25.1805C26.159 25.1145 26.2201 25.0451 26.279 24.9747C26.3358 24.907 26.3876 24.8368 26.4377 24.7657C26.4455 24.7547 26.4541 24.7442 26.4616 24.7329C26.5066 24.6669 26.5472 24.5992 26.5866 24.5308C26.5968 24.5129 26.6081 24.4956 26.6178 24.4775C26.6535 24.4124 26.6853 24.3462 26.7159 24.2792C26.7264 24.2562 26.7376 24.2337 26.7477 24.2108C26.7753 24.1467 26.7992 24.0817 26.8222 24.0162C26.8317 23.9888 26.842 23.9617 26.8508 23.9341C26.8708 23.8712 26.8882 23.8079 26.9043 23.7441C26.9124 23.7126 26.9202 23.6813 26.9273 23.6498C26.9408 23.5887 26.9518 23.5273 26.9615 23.4655C26.9672 23.4303 26.9723 23.3953 26.9767 23.3599C26.984 23.3007 26.9894 23.2415 26.9933 23.1821C26.9958 23.1435 26.9977 23.1051 26.9987 23.0665C27.0004 23.0096 27.0007 22.9529 26.9994 22.8959C26.9985 22.8546 26.9963 22.8133 26.9936 22.772C26.9901 22.7177 26.986 22.6634 26.9796 22.6094C26.9745 22.5654 26.9676 22.5216 26.9608 22.4776C26.9527 22.4263 26.9444 22.3752 26.9337 22.3244C26.9239 22.2782 26.9119 22.2325 26.9002 22.1865C26.8877 22.1384 26.8757 22.0904 26.8611 22.043C26.8462 21.9951 26.8286 21.9479 26.8114 21.9005C26.7953 21.856 26.7799 21.8113 26.7616 21.7673C26.741 21.7179 26.7173 21.67 26.6941 21.6216C26.6746 21.5808 26.6565 21.5397 26.635 21.4999C26.6078 21.4488 26.5768 21.3996 26.5467 21.3498C26.525 21.3141 26.5049 21.2774 26.4814 21.2425C26.4448 21.1875 26.404 21.1347 26.3634 21.0816C26.3421 21.0537 26.323 21.0249 26.3008 20.9978C26.236 20.9186 26.1668 20.8416 26.093 20.7677L24.0986 18.7733C24.0248 18.6995 23.9478 18.6306 23.8686 18.5655C23.8414 18.5433 23.8128 18.5245 23.7852 18.5032C23.7319 18.4626 23.6791 18.4216 23.6239 18.3849C23.5889 18.3617 23.5527 18.3419 23.517 18.3201C23.4672 18.2898 23.4178 18.2588 23.3667 18.2316C23.3269 18.2104 23.2858 18.192 23.2452 18.1727C23.1968 18.1495 23.1484 18.1258 23.099 18.1052C23.055 18.0869 23.0101 18.0715 22.9653 18.0551C22.9182 18.038 22.8715 18.0207 22.8236 18.0058C22.7756 17.9908 22.7272 17.9786 22.6788 17.9662C22.6334 17.9544 22.5879 17.9427 22.5422 17.9329C22.4909 17.9222 22.4395 17.9136 22.388 17.9055C22.3444 17.8987 22.3009 17.8918 22.2572 17.8867C22.2029 17.8804 22.1486 17.8762 22.0941 17.8728C22.0528 17.8701 22.0118 17.8679 21.9704 17.8669C21.947 17.8664 21.9235 17.8662 21.9003 17.8662C21.8666 17.8662 21.8331 17.8667 21.7993 17.8676C21.761 17.8689 21.7228 17.8706 21.6847 17.873C21.625 17.8769 21.5654 17.8826 21.506 17.8899C21.471 17.8943 21.4363 17.8994 21.4014 17.9048C21.3393 17.9146 21.2777 17.9258 21.2161 17.9393C21.1848 17.9461 21.1537 17.9542 21.1227 17.962C21.0587 17.9781 20.9951 17.9955 20.9318 18.0158C20.9047 18.0246 20.8778 18.0346 20.8509 18.0439C20.7851 18.0671 20.7199 18.0913 20.6553 18.1189C20.6326 18.1287 20.6103 18.1397 20.5879 18.1502C20.5206 18.181 20.4539 18.213 20.3886 18.2487C20.371 18.2585 20.3539 18.2693 20.3366 18.2795C20.2676 18.3191 20.1997 18.36 20.1334 18.4052C20.1227 18.4125 20.1124 18.4211 20.1017 18.4284C20.03 18.4785 19.9596 18.5306 19.8917 18.5875C19.8213 18.6464 19.7518 18.7073 19.6858 18.7733L18.3365 20.1227C18.25 20.2092 18.1368 20.2522 18.0236 20.2522C17.9104 20.2522 17.797 20.2089 17.7107 20.1227L11.878 14.2902C11.7052 14.1173 11.7052 13.837 11.878 13.6641L13.2273 12.3148C13.2933 12.2488 13.3545 12.1794 13.4131 12.109C13.4698 12.0413 13.5217 11.9711 13.5718 11.9C13.5796 11.889 13.5881 11.8785 13.5957 11.8672C13.6407 11.8012 13.6813 11.7335 13.7206 11.6651C13.7309 11.6472 13.7421 11.6299 13.7519 11.6118C13.7876 11.5468 13.8194 11.4805 13.8499 11.4135C13.8605 11.3906 13.8717 11.3681 13.8817 11.3451C13.9093 11.281 13.9333 11.216 13.9563 11.1505C13.9658 11.1231 13.9761 11.096 13.9849 11.0684C14.0049 11.0056 14.0223 10.9422 14.0384 10.8784C14.0465 10.8469 14.0543 10.8156 14.0614 10.7841C14.0748 10.723 14.0858 10.6616 14.0956 10.5998C14.1012 10.5646 14.1064 10.5296 14.1108 10.4942C14.1181 10.435 14.1235 10.3759 14.1274 10.3165C14.1298 10.2778 14.1318 10.2395 14.1328 10.2008C14.1345 10.1439 14.1347 10.0872 14.1335 10.0302C14.1325 9.9889 14.1303 9.94759 14.1276 9.90628C14.1242 9.85201 14.1201 9.79774 14.1137 9.74372C14.1086 9.69972 14.1017 9.65596 14.0949 9.61196C14.0868 9.56063 14.0785 9.50954 14.0677 9.4587C14.058 9.4125 14.046 9.36678 14.0343 9.32083C14.0218 9.27267 14.0098 9.22476 13.9951 9.17734C13.9802 9.12943 13.9626 9.08225 13.9455 9.03483C13.9294 8.99034 13.914 8.9456 13.8957 8.9016C13.8751 8.85223 13.8514 8.80431 13.8282 8.75591C13.8086 8.71509 13.7905 8.67402 13.769 8.63418C13.7419 8.58309 13.7109 8.53396 13.6808 8.48409C13.659 8.4484 13.639 8.41173 13.6155 8.37678C13.5789 8.32178 13.538 8.26898 13.4975 8.21593C13.4762 8.18807 13.4571 8.15922 13.4349 8.13209C13.3701 8.05289 13.3009 7.97589 13.2271 7.90206L11.2327 5.90763C11.1588 5.83381 11.0818 5.76487 11.0026 5.69985C10.9755 5.6776 10.9469 5.65878 10.919 5.63752C10.8657 5.59694 10.8129 5.55587 10.7577 5.5192C10.7227 5.49598 10.6866 5.47618 10.6509 5.45443C10.601 5.42411 10.5516 5.39307 10.5005 5.36594C10.4607 5.34467 10.4196 5.32634 10.3791 5.30702C10.3307 5.2838 10.2823 5.26009 10.2329 5.23956C10.1889 5.22122 10.1439 5.20582 10.0992 5.18945C10.052 5.17233 10.0053 5.15498 9.95739 5.14007C9.90947 5.12516 9.86107 5.11293 9.81267 5.10047C9.76721 5.08873 9.72174 5.077 9.67603 5.06722C9.62469 5.05647 9.57336 5.04791 9.52178 5.03984C9.47827 5.033 9.43476 5.02616 9.391 5.02102C9.33674 5.01467 9.28247 5.01051 9.22796 5.00709C9.18665 5.0044 9.14558 5.0022 9.10427 5.00122C9.08105 5.00024 9.05758 5 9.03411 5Z" stroke="white" stroke-width="2" mask="url(#path-3-inside-2)"/>
</svg>
