<svg width="32" height="32" viewBox="0 0 32 32" fill="none" xmlns="http://www.w3.org/2000/svg">
<path d="M23.9712 13.0895H23.4712V13.5895V26.1331H18.899H8.52863V13.5895V13.0895H8.02863H6.83052L15.9999 5.99852L25.1694 13.0895H23.9712Z" stroke="white"/>
<mask id="path-2-inside-1" fill="white">
<path d="M23.9717 26.9998H8.02815C7.82551 26.9998 7.66148 26.8355 7.66148 26.6331V13.9556H5.36665C5.20971 13.9556 5.07038 13.8558 5.01978 13.7075C4.96894 13.5591 5.01832 13.3948 5.14249 13.299L15.7758 5.07663C15.9078 4.97446 16.0923 4.97446 16.2243 5.07663L26.8576 13.299C26.9816 13.3951 27.031 13.5591 26.9804 13.7075C26.9295 13.8558 26.7902 13.9556 26.6332 13.9556H24.3384V26.6331C24.3384 26.8355 24.1741 26.9998 23.9717 26.9998ZM8.39482 26.2665H23.6053V13.5889C23.6053 13.3863 23.7696 13.2222 23.972 13.2222H25.5599L15.9999 5.83001L6.44024 13.2222H8.02815C8.23079 13.2222 8.39482 13.3863 8.39482 13.5889V26.2665Z"/>
</mask>
<path d="M7.66148 13.9556H8.66148V12.9556H7.66148V13.9556ZM5.01978 13.7075L5.96626 13.3847L5.96578 13.3833L5.01978 13.7075ZM5.14249 13.299L5.75341 14.0907L5.75421 14.0901L5.14249 13.299ZM15.7758 5.07663L16.3875 5.86771L16.3879 5.8674L15.7758 5.07663ZM16.2243 5.07663L15.6122 5.8674L15.6126 5.86771L16.2243 5.07663ZM26.8576 13.299L27.4703 12.5086L27.4694 12.5079L26.8576 13.299ZM26.9804 13.7075L27.9264 14.0316L27.9268 14.0302L26.9804 13.7075ZM24.3384 13.9556V12.9556H23.3384V13.9556H24.3384ZM23.6053 26.2665V27.2665H24.6053V26.2665H23.6053ZM25.5599 13.2222V14.2222H28.4879L26.1716 12.4311L25.5599 13.2222ZM15.9999 5.83001L16.6117 5.03892L15.9999 4.56592L15.3882 5.03893L15.9999 5.83001ZM6.44024 13.2222L5.82853 12.4312L3.51229 14.2222H6.44024V13.2222ZM23.9717 25.9998H8.02815V27.9998H23.9717V25.9998ZM8.02815 25.9998C8.37823 25.9998 8.66148 26.2837 8.66148 26.6331H6.66148C6.66148 27.3874 7.27279 27.9998 8.02815 27.9998V25.9998ZM8.66148 26.6331V13.9556H6.66148V26.6331H8.66148ZM7.66148 12.9556H5.36665V14.9556H7.66148V12.9556ZM5.36665 12.9556C5.6375 12.9556 5.87872 13.128 5.96626 13.3847L4.0733 14.0302C4.26205 14.5837 4.78192 14.9556 5.36665 14.9556V12.9556ZM5.96578 13.3833C6.05392 13.6405 5.96824 13.9249 5.75341 14.0907L4.53158 12.5073C4.06839 12.8647 3.88396 13.4777 4.07378 14.0316L5.96578 13.3833ZM5.75421 14.0901L16.3875 5.86771L15.1641 4.28555L4.53078 12.5079L5.75421 14.0901ZM16.3879 5.8674C16.1595 6.0442 15.8406 6.0442 15.6122 5.8674L16.8365 4.28586C16.3441 3.90471 15.6561 3.90471 15.1637 4.28586L16.3879 5.8674ZM15.6126 5.86771L26.2459 14.0901L27.4694 12.5079L16.8361 4.28555L15.6126 5.86771ZM26.245 14.0893C26.0322 13.9244 25.9463 13.6415 26.0339 13.3847L27.9268 14.0302C28.1156 13.4766 27.931 12.8657 27.4703 12.5086L26.245 14.0893ZM26.0344 13.3833C26.1218 13.1281 26.3621 12.9556 26.6332 12.9556V14.9556C27.2182 14.9556 27.7372 14.5836 27.9264 14.0316L26.0344 13.3833ZM26.6332 12.9556H24.3384V14.9556H26.6332V12.9556ZM23.3384 13.9556V26.6331H25.3384V13.9556H23.3384ZM23.3384 26.6331C23.3384 26.2833 23.6219 25.9998 23.9717 25.9998V27.9998C24.7264 27.9998 25.3384 27.3878 25.3384 26.6331H23.3384ZM8.39482 27.2665H23.6053V25.2665H8.39482V27.2665ZM24.6053 26.2665V13.5889H22.6053V26.2665H24.6053ZM24.6053 13.5889C24.6053 13.939 24.3214 14.2222 23.972 14.2222V12.2222C23.2177 12.2222 22.6053 12.8335 22.6053 13.5889H24.6053ZM23.972 14.2222H25.5599V12.2222H23.972V14.2222ZM26.1716 12.4311L16.6117 5.03892L15.3882 6.62109L24.9482 14.0133L26.1716 12.4311ZM15.3882 5.03893L5.82853 12.4312L7.05196 14.0133L16.6117 6.62109L15.3882 5.03893ZM6.44024 14.2222H8.02815V12.2222H6.44024V14.2222ZM8.02815 14.2222C7.67851 14.2222 7.39482 13.9385 7.39482 13.5889H9.39482C9.39482 12.834 8.78308 12.2222 8.02815 12.2222V14.2222ZM7.39482 13.5889V26.2665H9.39482V13.5889H7.39482Z" fill="white" mask="url(#path-2-inside-1)"/>
</svg>
