<svg width="32" height="32" viewBox="0 0 32 32" fill="none" xmlns="http://www.w3.org/2000/svg">
<path d="M18.899 26.6331H23.9712V13.5895H26.6332L15.9999 5.36646L5.36664 13.5895H8.02863V26.6331H18.899Z" fill="white"/>
<path d="M23.9717 26.9998H8.02815C7.82551 26.9998 7.66148 26.8355 7.66148 26.6331V13.9556H5.36665C5.20971 13.9556 5.07038 13.8558 5.01978 13.7075C4.96894 13.5591 5.01832 13.3948 5.14249 13.299L15.7758 5.07663C15.9078 4.97446 16.0923 4.97446 16.2243 5.07663L26.8576 13.299C26.9816 13.3951 27.031 13.5591 26.9804 13.7075C26.9295 13.8558 26.7902 13.9556 26.6332 13.9556H24.3384V26.6331C24.3384 26.8355 24.1741 26.9998 23.9717 26.9998ZM8.39482 26.2665H23.6053V13.5889C23.6053 13.3863 23.7696 13.2222 23.972 13.2222H25.5599L15.9999 5.83001L6.44024 13.2222H8.02815C8.23079 13.2222 8.39482 13.3863 8.39482 13.5889V26.2665Z" fill="white"/>
</svg>
