<svg width="32" height="32" viewBox="0 0 32 32" fill="none" xmlns="http://www.w3.org/2000/svg">
<path d="M18.3702 21.6354L18.3702 21.6358L18.2429 22.1719L18.2428 22.1721L17.7563 22.0566C17.7008 22.2908 17.527 22.481 17.2973 22.5523L18.3702 21.6354ZM18.3702 21.6354C18.4989 21.0919 18.2294 20.5429 17.7388 20.2995L17.7386 20.2994C17.4668 20.1646 17.2988 19.8645 17.3508 19.545C17.3508 19.545 17.3508 19.545 17.3508 19.545L18.1005 14.936L18.1005 14.9359C18.2357 14.1034 17.6706 13.3188 16.8381 13.1833L16.8379 13.1833C15.9323 13.0362 15.0068 13.1018 14.1343 13.3732L14.134 13.3733M18.3702 21.6354L14.134 13.3733M14.134 13.3733C13.7316 13.4987 13.4325 13.8293 13.3372 14.2311C13.3372 14.2311 13.3372 14.2312 13.3372 14.2313L13.2099 14.7674C13.0807 15.3113 13.3508 15.8604 13.8414 16.1036L14.134 13.3733ZM14.7421 23.2197C15.6477 23.3668 16.5732 23.3011 17.4457 23.0298L13.8416 16.1036C14.1133 16.2384 14.2812 16.5385 14.2293 16.8579C14.2293 16.8579 14.2293 16.8579 14.2293 16.8579L13.4796 21.4669L13.4795 21.467C13.3444 22.2995 13.9094 23.0841 14.7419 23.2196L14.7421 23.2197ZM5.5 16C5.5 10.2107 10.2107 5.5 16 5.5C21.7893 5.5 26.5 10.2107 26.5 16C26.5 21.7893 21.7893 26.5 16 26.5C10.2107 26.5 5.5 21.7893 5.5 16ZM14.4244 10.9024C14.4244 12.1167 15.409 13.1012 16.6233 13.1012C17.8377 13.1012 18.8222 12.1167 18.8222 10.9024C18.8222 9.68804 17.8377 8.70347 16.6233 8.70347C15.409 8.70347 14.4244 9.68804 14.4244 10.9024Z" stroke="white"/>
</svg>
