<svg width="32" height="32" viewBox="0 0 32 32" fill="none" xmlns="http://www.w3.org/2000/svg">
<path d="M16 5C9.9346 5 5 9.9346 5 16C5 22.0654 9.9346 27 16 27C22.0654 27 27 22.0654 27 16C27 9.9346 22.0654 5 16 5ZM17.8837 21.5203L17.7563 22.0566C17.7008 22.2908 17.527 22.481 17.2973 22.5523C16.4987 22.8007 15.6514 22.8608 14.8223 22.7261C14.2622 22.635 13.8821 22.1072 13.9731 21.5472L14.7228 16.9382C14.8115 16.3926 14.5231 15.8834 14.0635 15.6556C13.7763 15.5133 13.6223 15.1948 13.6964 14.8829L13.8237 14.3466C13.8792 14.1124 14.053 13.9222 14.2828 13.8506C15.0814 13.6022 15.9286 13.5421 16.7578 13.6768C17.3178 13.768 17.6979 14.2957 17.607 14.8558L16.8573 19.4648C16.7685 20.0104 17.057 20.5195 17.5165 20.7474C17.8038 20.8899 17.9575 21.2084 17.8837 21.5203ZM16.6233 12.6012C15.6852 12.6012 14.9244 11.8405 14.9244 10.9024C14.9244 9.96418 15.6852 9.20347 16.6233 9.20347C17.5615 9.20347 18.3222 9.96418 18.3222 10.9024C18.3222 11.8405 17.5615 12.6012 16.6233 12.6012Z" fill="white"/>
</svg>
