<svg width="78" height="78" viewBox="0 0 78 78" fill="none" xmlns="http://www.w3.org/2000/svg">
<path d="M41.1931 39.4834C41.1931 39.4834 9.1214 60.1169 8.44856 61.014C7.77573 61.9111 8.44857 62.5839 9.56995 62.3597C10.6913 62.1354 31.3249 55.8556 31.3249 55.8556C31.3249 55.8556 32.8948 55.1828 32.8948 56.7527C32.8948 58.3227 32.6705 65.2753 32.8948 66.1724C33.1191 67.0695 34.2405 66.1724 34.2405 66.1724C34.2405 66.1724 68.1064 43.8343 69.0035 42.399C69.9006 40.9636 68.6297 41.0533 67.8821 41.2776C59.8829 44.3427 43.705 50.5627 42.9873 50.9215C42.2696 51.2804 42.0902 50.772 42.0902 50.473V40.1562C42.0902 39.0797 41.4921 39.2591 41.1931 39.4834Z" fill="#FF6D04"/>
<path d="M41.013 38.0877C41.013 38.0877 8.94128 17.4541 8.26845 16.557C7.59561 15.6599 8.26845 14.9871 9.38984 15.2114C10.5112 15.4357 31.1448 21.7154 31.1448 21.7154C31.1448 21.7154 32.7147 22.3883 32.7147 20.8183C32.7147 19.2484 32.4904 12.2958 32.7147 11.3987C32.939 10.5015 34.0604 11.3987 34.0604 11.3987C34.0604 11.3987 67.9263 33.7367 68.8234 35.1721C69.7205 36.6075 68.4496 36.5177 67.702 36.2935C59.7028 33.2283 43.5249 27.0084 42.8072 26.6495C42.0895 26.2907 41.9101 26.7991 41.9101 27.0981V37.4148C41.9101 38.4914 41.312 38.312 41.013 38.0877Z" fill="#FF6D04"/>
</svg>
