<svg width="32" height="32" viewBox="0 0 32 32" fill="none" xmlns="http://www.w3.org/2000/svg">
<path d="M25.7695 27C26.4489 27 27 26.5752 27 26.0513V24.5732C27 21.3094 24.1794 18.5303 20.3245 17.61C19.4446 17.4 18.8422 16.7757 18.8422 16.0653C18.8422 15.631 19.0714 15.2166 19.4728 14.9116C20.5119 14.1218 21.1577 13.0262 21.1577 11.8123V9.46659C21.1577 7.10136 18.7721 5.08691 15.7061 5.00282C12.4876 4.91482 9.84195 6.90018 9.84195 9.36221V11.8125C9.84195 13.0264 10.4878 14.122 11.5268 14.9118C11.9282 15.2169 12.1575 15.631 12.1575 16.0656C12.1575 16.7757 11.5554 17.4 10.6752 17.6102C6.82094 18.5303 4 21.3094 4 24.5732V26.0513C4 26.5752 4.55106 27 5.23054 27H25.7695Z" fill="white"/>
</svg>
