<svg width="32" height="32" viewBox="0 0 32 32" fill="none" xmlns="http://www.w3.org/2000/svg">
<path d="M10.7914 18.0965L10.7913 18.0965C7.07036 18.9848 4.5 21.6234 4.5 24.5732V26.0513C4.5 26.1859 4.69848 26.5 5.23054 26.5H25.7695C26.3015 26.5 26.5 26.1859 26.5 26.0513V24.5732C26.5 21.6234 23.93 18.9848 20.2084 18.0963M10.7914 18.0965L19.1703 14.5135C18.6698 14.8938 18.3422 15.4454 18.3422 16.0653C18.3422 17.0846 19.1886 17.8529 20.2084 18.0963M10.7914 18.0965C11.8114 17.8529 12.6575 17.0845 12.6575 16.0656C12.6575 15.4453 12.3298 14.8941 11.8294 14.5137L10.7914 18.0965ZM20.2084 18.0963L20.3245 17.61M20.2084 18.0963L20.3245 17.61M20.3245 17.61C24.1794 18.5303 27 21.3094 27 24.5732V26.0513C27 26.5752 26.4489 27 25.7695 27H5.23054C4.55106 27 4 26.5752 4 26.0513V24.5732C4 21.3094 6.82094 18.5303 10.6752 17.6102L18.8422 16.0653C18.8422 16.7757 19.4446 17.4 20.3245 17.61ZM11.8659 6.6271C10.8995 7.34767 10.3419 8.32235 10.3419 9.36221V11.8125C10.3419 12.837 10.8858 13.7965 11.8294 14.5137L11.8659 6.6271ZM11.8659 6.6271C12.8326 5.90639 14.1865 5.46146 15.6924 5.50263L11.8659 6.6271ZM20.6577 11.8123C20.6577 12.8368 20.1139 13.7962 19.1703 14.5135L15.6924 5.50263C18.5939 5.58222 20.6577 7.46716 20.6577 9.46659V11.8123Z" stroke="white"/>
</svg>
